0
SECTION
2
HEADER
9
$INSUNITS
70
4
9
$ACADVER
1
AC1014
9
$HANDSEED
5
FFFF
0
ENDSEC
0
SECTION
2
TABLES
0
TABLE
2
VPORT
5
8
100
AcDbSymbolTable
0
ENDTAB
0
TABLE
2
LTYPE
5
5
100
AcDbSymbolTable
0
LTYPE
5
14
100
AcDbSymbolTableRecord
100
AcDbLinetypeTableRecord
2
BYBLOCK
70
0
0
LTYPE
5
15
100
AcDbSymbolTableRecord
100
AcDbLinetypeTableRecord
2
BYLAYER
70
0
0
ENDTAB
0
TABLE
2
LAYER
5
2
100
AcDbSymbolTable
70
2
0
LAYER
5
50
100
AcDbSymbolTableRecord
100
AcDbLayerTableRecord
2
0
70
0
6
CONTINUOUS
0
ENDTAB
0
TABLE
2
STYLE
5
3
100
AcDbSymbolTable
70
1
0
STYLE
5
11
100
AcDbSymbolTableRecord
100
AcDbTextStyleTableRecord
2
STANDARD
70
0
0
ENDTAB
0
TABLE
2
VIEW
5
6
100
AcDbSymbolTable
70
0
0
ENDTAB
0
TABLE
2
UCS
5
7
100
AcDbSymbolTable
70
0
0
ENDTAB
0
TABLE
2
APPID
5
9
100
AcDbSymbolTable
70
2
0
APPID
5
12
100
AcDbSymbolTableRecord
100
AcDbRegAppTableRecord
2
ACAD
70
0
0
ENDTAB
0
TABLE
2
DIMSTYLE
5
A
100
AcDbSymbolTable
70
1
0
ENDTAB
0
TABLE
2
BLOCK_RECORD
5
1
100
AcDbSymbolTable
70
1
0
BLOCK_RECORD
5
1F
100
AcDbSymbolTableRecord
100
AcDbBlockTableRecord
2
*MODEL_SPACE
0
BLOCK_RECORD
5
1B
100
AcDbSymbolTableRecord
100
AcDbBlockTableRecord
2
*PAPER_SPACE
0
ENDTAB
0
ENDSEC
0
SECTION
2
BLOCKS
0
BLOCK
5
20
100
AcDbEntity
100
AcDbBlockBegin
2
*MODEL_SPACE
0
ENDBLK
5
21
100
AcDbEntity
100
AcDbBlockEnd
0
BLOCK
5
1C
100
AcDbEntity
100
AcDbBlockBegin
2
*PAPER_SPACE
0
ENDBLK
5
1D
100
AcDbEntity
100
AcDbBlockEnd
0
ENDSEC
0
SECTION
2
ENTITIES
0
SPLINE
5
100
100
AcDbEntity
8
0
100
AcDbSpline
70
0
71
3
72
8
73
4
74
0
42
0.000000001
43
0.0000000001
44
0.0000000001
40
0
40
0
40
0
40
0
40
1
40
1
40
1
40
1
10
170.1429307300337
20
-88.726711674866948
30
0
10
169.9772216371932
20
-88.726711674866948
30
0
10
169.84320742281699
20
-88.860898144017412
30
0
10
169.84320742281699
20
-89.026607236857927
30
0
0
SPLINE
5
101
100
AcDbEntity
8
0
100
AcDbSpline
70
0
71
3
72
8
73
4
74
0
42
0.000000001
43
0.0000000001
44
0.0000000001
40
0
40
0
40
0
40
0
40
1
40
1
40
1
40
1
10
126.5430080521316
20
-102.72671845305099
30
0
10
126.7087171449721
20
-102.72671845305099
30
0
10
126.84307586889689
20
-102.5923597291262
30
0
10
126.84307586889689
20
-102.4266506362857
30
0
0
LINE
5
102
100
AcDbEntity
8
0
100
AcDbLine
10
126.84307586889689
20
-102.4266506362857
30
0
11
126.84307586889689
21
-89.026607236857913
31
0
0
LINE
5
103
100
AcDbEntity
8
0
100
AcDbLine
10
93.843022980011483
20
-89.026607236857927
30
0
11
93.843022980011483
21
-102.42665063628571
31
0
0
LINE
5
104
100
AcDbEntity
8
0
100
AcDbLine
10
107.8430297581955
20
-102.4266506362857
30
0
11
107.8430297581955
21
-89.026607236857913
31
0
0
SPLINE
5
105
100
AcDbEntity
8
0
100
AcDbSpline
70
0
71
3
72
8
73
4
74
0
42
0.000000001
43
0.0000000001
44
0.0000000001
40
0
40
0
40
0
40
0
40
1
40
1
40
1
40
1
10
126.84307586889689
20
-89.026607236857927
30
0
10
126.84307586889689
20
-88.860898144017412
30
0
10
126.7087171449721
20
-88.726711674866948
30
0
10
126.5430080521316
20
-88.726711674866948
30
0
0
SPLINE
5
106
100
AcDbEntity
8
0
100
AcDbSpline
70
0
71
3
72
8
73
4
74
0
42
0.000000001
43
0.0000000001
44
0.0000000001
40
0
40
0
40
0
40
0
40
1
40
1
40
1
40
1
10
183.84304194622669
20
-89.026607236857927
30
0
10
183.84304194622669
20
-88.860898144017412
30
0
10
183.70868322230206
20
-88.726711674866948
30
0
10
183.54297412946153
20
-88.726711674866948
30
0
0
SPLINE
5
107
100
AcDbEntity
8
0
100
AcDbSpline
70
0
71
3
72
8
73
4
74
0
42
0.000000001
43
0.0000000001
44
0.0000000001
40
0
40
0
40
0
40
0
40
1
40
1
40
1
40
1
10
183.54297412946153
20
-102.72671845305099
30
0
10
183.70868322230206
20
-102.72671845305099
30
0
10
183.84304194622669
20
-102.5923597291262
30
0
10
183.84304194622669
20
-102.4266506362857
30
0
0
LINE
5
108
100
AcDbEntity
8
0
100
AcDbLine
10
170.1429307300337
20
-102.72671845305099
30
0
11
183.54297412946153
21
-102.72671845305099
31
0
0
LINE
5
109
100
AcDbEntity
8
0
100
AcDbLine
10
183.84304194622669
20
-102.4266506362857
30
0
11
183.84304194622669
21
-89.026607236857927
31
0
0
SPLINE
5
110
100
AcDbEntity
8
0
100
AcDbSpline
70
0
71
3
72
8
73
4
74
0
42
0.000000001
43
0.0000000001
44
0.0000000001
40
0
40
0
40
0
40
0
40
1
40
1
40
1
40
1
10
107.54313419620448
20
-102.72671845305099
30
0
10
107.70867103427081
20
-102.72671845305099
30
0
10
107.8430297581955
20
-102.5923597291262
30
0
10
107.8430297581955
20
-102.4266506362857
30
0
0
LINE
5
111
100
AcDbEntity
8
0
100
AcDbLine
10
169.84320742281699
20
-89.026607236857927
30
0
11
169.84320742281699
21
-102.42665063628571
31
0
0
LINE
5
112
100
AcDbEntity
8
0
100
AcDbLine
10
94.143090796776718
20
-102.72671845305099
30
0
11
107.54313419620448
21
-102.72671845305099
31
0
0
LINE
5
113
100
AcDbEntity
8
0
100
AcDbLine
10
112.84306909071277
20
-89.026607236857927
30
0
11
112.84306909071277
21
-102.42665063628571
31
0
0
SPLINE
5
114
100
AcDbEntity
8
0
100
AcDbSpline
70
0
71
3
72
8
73
4
74
0
42
0.000000001
43
0.0000000001
44
0.0000000001
40
0
40
0
40
0
40
0
40
1
40
1
40
1
40
1
10
113.14313690747808
20
-88.726711674866948
30
0
10
112.97742781463759
20
-88.726711674866948
30
0
10
112.84306909071277
20
-88.860898144017412
30
0
10
112.84306909071277
20
-89.026607236857927
30
0
0
LINE
5
115
100
AcDbEntity
8
0
100
AcDbLine
10
126.5430080521316
20
-88.726711674866948
30
0
11
113.14313690747808
21
-88.726711674866948
31
0
0
SPLINE
5
116
100
AcDbEntity
8
0
100
AcDbSpline
70
0
71
3
72
8
73
4
74
0
42
0.000000001
43
0.0000000001
44
0.0000000001
40
0
40
0
40
0
40
0
40
1
40
1
40
1
40
1
10
112.84306909071277
20
-102.4266506362857
30
0
10
112.84306909071277
20
-102.5923597291262
30
0
10
112.97742781463759
20
-102.72671845305099
30
0
10
113.14313690747808
20
-102.72671845305099
30
0
0
LINE
5
117
100
AcDbEntity
8
0
100
AcDbLine
10
113.14313690747808
20
-102.72671845305099
30
0
11
126.5430080521316
21
-102.72671845305099
31
0
0
SPLINE
5
118
100
AcDbEntity
8
0
100
AcDbSpline
70
0
71
3
72
8
73
4
74
0
42
0.000000001
43
0.0000000001
44
0.0000000001
40
0
40
0
40
0
40
0
40
1
40
1
40
1
40
1
10
93.843022980011483
20
-102.4266506362857
30
0
10
93.843022980011483
20
-102.5923597291262
30
0
10
93.977381703936217
20
-102.72671845305099
30
0
10
94.143090796776718
20
-102.72671845305099
30
0
0
LINE
5
119
100
AcDbEntity
8
0
100
AcDbLine
10
107.54313419620448
20
-88.726711674866948
30
0
11
94.143090796776718
21
-88.726711674866948
31
0
0
LINE
5
120
100
AcDbEntity
8
0
100
AcDbLine
10
226.84300124537259
20
-89.026607236857927
30
0
11
226.84300124537259
21
-102.42665063628571
31
0
0
SPLINE
5
121
100
AcDbEntity
8
0
100
AcDbSpline
70
0
71
3
72
8
73
4
74
0
42
0.000000001
43
0.0000000001
44
0.0000000001
40
0
40
0
40
0
40
0
40
1
40
1
40
1
40
1
10
36.843056902681603
20
-67.226732025294012
30
0
10
35.462262632193458
20
-67.226732025294012
30
0
10
34.343123363810051
20
-68.345871293677419
30
0
10
34.343123363810051
20
-69.726665564165557
30
0
0
LINE
5
122
100
AcDbEntity
8
0
100
AcDbLine
10
221.8431341676295
20
-102.4266506362857
30
0
11
221.8431341676295
21
-89.026607236857913
31
0
0
SPLINE
5
123
100
AcDbEntity
8
0
100
AcDbSpline
70
0
71
3
72
8
73
4
74
0
42
0.000000001
43
0.0000000001
44
0.0000000001
40
0
40
0
40
0
40
0
40
1
40
1
40
1
40
1
10
221.8431341676295
20
-89.026607236857927
30
0
10
221.8431341676295
20
-88.860898144017412
30
0
10
221.70877544370481
20
-88.726711674866948
30
0
10
221.54306635086431
20
-88.726711674866948
30
0
0
SPLINE
5
124
100
AcDbEntity
8
0
100
AcDbSpline
70
0
71
3
72
8
73
4
74
0
42
0.000000001
43
0.0000000001
44
0.0000000001
40
0
40
0
40
0
40
0
40
1
40
1
40
1
40
1
10
107.8430297581955
20
-89.026607236857927
30
0
10
107.8430297581955
20
-88.860898144017412
30
0
10
107.70867103427081
20
-88.726711674866948
30
0
10
107.54313419620448
20
-88.726711674866948
30
0
0
SPLINE
5
125
100
AcDbEntity
8
0
100
AcDbSpline
70
0
71
3
72
8
73
4
74
0
42
0.000000001
43
0.0000000001
44
0.0000000001
40
0
40
0
40
0
40
0
40
1
40
1
40
1
40
1
10
221.54306635086431
20
-102.72671845305099
30
0
10
221.70877544370481
20
-102.72671845305099
30
0
10
221.8431341676295
20
-102.5923597291262
30
0
10
221.8431341676295
20
-102.4266506362857
30
0
0
SPLINE
5
126
100
AcDbEntity
8
0
100
AcDbSpline
70
0
71
3
72
8
73
4
74
0
42
0.000000001
43
0.0000000001
44
0.0000000001
40
0
40
0
40
0
40
0
40
1
40
1
40
1
40
1
10
227.14306906213778
20
-88.726711674866948
30
0
10
226.97735996929725
20
-88.726711674866948
30
0
10
226.84300124537259
20
-88.860898144017412
30
0
10
226.84300124537259
20
-89.026607236857927
30
0
0
LINE
5
127
100
AcDbEntity
8
0
100
AcDbLine
10
240.84318027833089
20
-102.4266506362857
30
0
11
240.84318027833089
21
-89.026607236857913
31
0
0
LINE
5
128
100
AcDbEntity
8
0
100
AcDbLine
10
240.54311246156558
20
-88.726711674866948
30
0
11
227.14306906213778
21
-88.726711674866948
31
0
0
SPLINE
5
129
100
AcDbEntity
8
0
100
AcDbSpline
70
0
71
3
72
8
73
4
74
0
42
0.000000001
43
0.0000000001
44
0.0000000001
40
0
40
0
40
0
40
0
40
1
40
1
40
1
40
1
10
240.84318027833089
20
-89.026607236857927
30
0
10
240.84318027833089
20
-88.860898144017412
30
0
10
240.70882155440609
20
-88.726711674866948
30
0
10
240.54311246156558
20
-88.726711674866948
30
0
0
LINE
5
130
100
AcDbEntity
8
0
100
AcDbLine
10
259.54315857226698
20
-88.726711674866948
30
0
11
246.14311517283923
21
-88.726711674866948
31
0
0
LINE
5
131
100
AcDbEntity
8
0
100
AcDbLine
10
245.84304735607401
20
-89.026607236857927
30
0
11
245.84304735607401
21
-102.42665063628571
31
0
0
SPLINE
5
132
100
AcDbEntity
8
0
100
AcDbSpline
70
0
71
3
72
8
73
4
74
0
42
0.000000001
43
0.0000000001
44
0.0000000001
40
0
40
0
40
0
40
0
40
1
40
1
40
1
40
1
10
202.54302024016289
20
-102.72671845305099
30
0
10
202.70872933300336
20
-102.72671845305099
30
0
10
202.84308805692808
20
-102.5923597291262
30
0
10
202.84308805692808
20
-102.4266506362857
30
0
0
LINE
5
133
100
AcDbEntity
8
0
100
AcDbLine
10
259.84288187948368
20
-102.4266506362857
30
0
11
259.84288187948368
21
-89.026607236857913
31
0
0
LINE
5
134
100
AcDbEntity
8
0
100
AcDbLine
10
188.84290902396981
20
-89.026607236857927
30
0
11
188.84290902396981
21
-102.42665063628571
31
0
0
SPLINE
5
135
100
AcDbEntity
8
0
100
AcDbSpline
70
0
71
3
72
8
73
4
74
0
42
0.000000001
43
0.0000000001
44
0.0000000001
40
0
40
0
40
0
40
0
40
1
40
1
40
1
40
1
10
202.84308805692808
20
-89.026607236857927
30
0
10
202.84308805692808
20
-88.860898144017412
30
0
10
202.70872933300336
20
-88.726711674866948
30
0
10
202.54302024016289
20
-88.726711674866948
30
0
0
LINE
5
136
100
AcDbEntity
8
0
100
AcDbLine
10
202.54302024016289
20
-88.726711674866948
30
0
11
189.14297684073512
21
-88.726711674866948
31
0
0
SPLINE
5
137
100
AcDbEntity
8
0
100
AcDbSpline
70
0
71
3
72
8
73
4
74
0
42
0.000000001
43
0.0000000001
44
0.0000000001
40
0
40
0
40
0
40
0
40
1
40
1
40
1
40
1
10
226.84300124537259
20
-102.4266506362857
30
0
10
226.84300124537259
20
-102.5923597291262
30
0
10
226.97735996929725
20
-102.72671845305099
30
0
10
227.14306906213778
20
-102.72671845305099
30
0
0
SPLINE
5
138
100
AcDbEntity
8
0
100
AcDbSpline
70
0
71
3
72
8
73
4
74
0
42
0.000000001
43
0.0000000001
44
0.0000000001
40
0
40
0
40
0
40
0
40
1
40
1
40
1
40
1
10
240.54311246156558
20
-102.72671845305099
30
0
10
240.70882155440609
20
-102.72671845305099
30
0
10
240.84318027833089
20
-102.5923597291262
30
0
10
240.84318027833089
20
-102.4266506362857
30
0
0
SPLINE
5
139
100
AcDbEntity
8
0
100
AcDbSpline
70
0
71
3
72
8
73
4
74
0
42
0.000000001
43
0.0000000001
44
0.0000000001
40
0
40
0
40
0
40
0
40
1
40
1
40
1
40
1
10
207.84295513467117
20
-102.4266506362857
30
0
10
207.84295513467117
20
-102.5923597291262
30
0
10
207.97731385859592
20
-102.72671845305099
30
0
10
208.14302295143651
20
-102.72671845305099
30
0
0
LINE
5
140
100
AcDbEntity
8
0
100
AcDbLine
10
202.84308805692808
20
-102.4266506362857
30
0
11
202.84308805692808
21
-89.026607236857927
31
0
0
LINE
5
141
100
AcDbEntity
8
0
100
AcDbLine
10
246.14311517283923
20
-102.72671845305099
30
0
11
259.54315857226698
21
-102.72671845305099
31
0
0
SPLINE
5
142
100
AcDbEntity
8
0
100
AcDbSpline
70
0
71
3
72
8
73
4
74
0
42
0.000000001
43
0.0000000001
44
0.0000000001
40
0
40
0
40
0
40
0
40
1
40
1
40
1
40
1
10
189.14297684073512
20
-88.726711674866948
30
0
10
188.97726774789459
20
-88.726711674866948
30
0
10
188.84290902396981
20
-88.860898144017412
30
0
10
188.84290902396981
20
-89.026607236857927
30
0
0
LINE
5
143
100
AcDbEntity
8
0
100
AcDbLine
10
183.54297412946153
20
-88.726711674866948
30
0
11
170.1429307300337
21
-88.726711674866948
31
0
0
LINE
5
144
100
AcDbEntity
8
0
100
AcDbLine
10
189.14297684073512
20
-102.72671845305099
30
0
11
202.54302024016289
21
-102.72671845305099
31
0
0
LINE
5
145
100
AcDbEntity
8
0
100
AcDbLine
10
227.14306906213778
20
-102.72671845305099
30
0
11
240.54311246156558
21
-102.72671845305099
31
0
0
SPLINE
5
146
100
AcDbEntity
8
0
100
AcDbSpline
70
0
71
3
72
8
73
4
74
0
42
0.000000001
43
0.0000000001
44
0.0000000001
40
0
40
0
40
0
40
0
40
1
40
1
40
1
40
1
10
245.84304735607401
20
-102.4266506362857
30
0
10
245.84304735607401
20
-102.5923597291262
30
0
10
245.9774060799987
20
-102.72671845305099
30
0
10
246.14311517283923
20
-102.72671845305099
30
0
0
SPLINE
5
147
100
AcDbEntity
8
0
100
AcDbSpline
70
0
71
3
72
8
73
4
74
0
42
0.000000001
43
0.0000000001
44
0.0000000001
40
0
40
0
40
0
40
0
40
1
40
1
40
1
40
1
10
246.14311517283923
20
-88.726711674866948
30
0
10
245.9774060799987
20
-88.726711674866948
30
0
10
245.84304735607401
20
-88.860898144017412
30
0
10
245.84304735607401
20
-89.026607236857927
30
0
0
LINE
5
148
100
AcDbEntity
8
0
100
AcDbLine
10
208.14302295143651
20
-102.72671845305099
30
0
11
221.54306635086431
21
-102.72671845305099
31
0
0
SPLINE
5
149
100
AcDbEntity
8
0
100
AcDbSpline
70
0
71
3
72
8
73
4
74
0
42
0.000000001
43
0.0000000001
44
0.0000000001
40
0
40
0
40
0
40
0
40
1
40
1
40
1
40
1
10
259.84288187948368
20
-89.026607236857927
30
0
10
259.84288187948368
20
-88.860898144017412
30
0
10
259.7088676651075
20
-88.726711674866948
30
0
10
259.54315857226698
20
-88.726711674866948
30
0
0
SPLINE
5
150
100
AcDbEntity
8
0
100
AcDbSpline
70
0
71
3
72
8
73
4
74
0
42
0.000000001
43
0.0000000001
44
0.0000000001
40
0
40
0
40
0
40
0
40
1
40
1
40
1
40
1
10
259.54315857226698
20
-102.72671845305099
30
0
10
259.7088676651075
20
-102.72671845305099
30
0
10
259.84288187948368
20
-102.5923597291262
30
0
10
259.84288187948368
20
-102.4266506362857
30
0
0
SPLINE
5
151
100
AcDbEntity
8
0
100
AcDbSpline
70
0
71
3
72
8
73
4
74
0
42
0.000000001
43
0.0000000001
44
0.0000000001
40
0
40
0
40
0
40
0
40
1
40
1
40
1
40
1
10
188.84290902396981
20
-102.4266506362857
30
0
10
188.84290902396981
20
-102.5923597291262
30
0
10
188.97726774789459
20
-102.72671845305099
30
0
10
189.14297684073512
20
-102.72671845305099
30
0
0
LINE
5
152
100
AcDbEntity
8
0
100
AcDbLine
10
207.84295513467117
20
-89.026607236857927
30
0
11
207.84295513467117
21
-102.4266506362857
31
0
0
LINE
5
153
100
AcDbEntity
8
0
100
AcDbLine
10
221.54306635086431
20
-88.726711674866948
30
0
11
208.14302295143651
21
-88.726711674866948
31
0
0
SPLINE
5
154
100
AcDbEntity
8
0
100
AcDbSpline
70
0
71
3
72
8
73
4
74
0
42
0.000000001
43
0.0000000001
44
0.0000000001
40
0
40
0
40
0
40
0
40
1
40
1
40
1
40
1
10
169.84320742281699
20
-102.4266506362857
30
0
10
169.84320742281699
20
-102.5923597291262
30
0
10
169.9772216371932
20
-102.72671845305099
30
0
10
170.1429307300337
20
-102.72671845305099
30
0
0
SPLINE
5
155
100
AcDbEntity
8
0
100
AcDbSpline
70
0
71
3
72
8
73
4
74
0
42
0.000000001
43
0.0000000001
44
0.0000000001
40
0
40
0
40
0
40
0
40
1
40
1
40
1
40
1
10
208.14302295143651
20
-88.726711674866948
30
0
10
207.97731385859592
20
-88.726711674866948
30
0
10
207.84295513467117
20
-88.860898144017412
30
0
10
207.84295513467117
20
-89.026607236857927
30
0
0
SPLINE
5
156
100
AcDbEntity
8
0
100
AcDbSpline
70
0
71
3
72
8
73
4
74
0
42
0.000000001
43
0.0000000001
44
0.0000000001
40
0
40
0
40
0
40
0
40
1
40
1
40
1
40
1
10
262.34298767312953
20
-69.726665564165557
30
0
10
262.34298767312953
20
-68.345871293677419
30
0
10
261.22367614997194
20
-67.226732025294012
30
0
10
259.84288187948368
20
-67.226732025294012
30
0
0
LINE
5
157
100
AcDbEntity
8
0
100
AcDbLine
10
262.34298767312953
20
-140.72663841967952
30
0
11
262.34298767312953
21
-69.726665564165557
31
0
0
LINE
5
158
100
AcDbEntity
8
0
100
AcDbLine
10
36.843056902681603
20
-143.2267442133253
30
0
11
259.84288187948374
21
-143.2267442133253
31
0
0
LINE
5
159
100
AcDbEntity
8
0
100
AcDbLine
10
202.54302024016289
20
-107.7267577855683
30
0
11
189.14297684073512
21
-107.7267577855683
31
0
0
SPLINE
5
160
100
AcDbEntity
8
0
100
AcDbSpline
70
0
71
3
72
8
73
4
74
0
42
0.000000001
43
0.0000000001
44
0.0000000001
40
0
40
0
40
0
40
0
40
1
40
1
40
1
40
1
10
240.54311246156558
20
-121.72659230897808
30
0
10
240.70882155440609
20
-121.72659230897808
30
0
10
240.84318027833089
20
-121.59223358505329
30
0
10
240.84318027833089
20
-121.42652449221281
30
0
0
SPLINE
5
161
100
AcDbEntity
8
0
100
AcDbSpline
70
0
71
3
72
8
73
4
74
0
42
0.000000001
43
0.0000000001
44
0.0000000001
40
0
40
0
40
0
40
0
40
1
40
1
40
1
40
1
10
189.14297684073512
20
-107.7267577855683
30
0
10
188.97726774789459
20
-107.7267577855683
30
0
10
188.84290902396981
20
-107.86111650949309
30
0
10
188.84290902396981
20
-108.02682560233362
30
0
0
SPLINE
5
162
100
AcDbEntity
8
0
100
AcDbSpline
70
0
71
3
72
8
73
4
74
0
42
0.000000001
43
0.0000000001
44
0.0000000001
40
0
40
0
40
0
40
0
40
1
40
1
40
1
40
1
10
226.84300124537259
20
-121.42652449221281
30
0
10
226.84300124537259
20
-121.59223358505329
30
0
10
226.97735996929725
20
-121.72659230897808
30
0
10
227.14306906213778
20
-121.72659230897808
30
0
0
LINE
5
163
100
AcDbEntity
8
0
100
AcDbLine
10
189.14297684073512
20
-121.72659230897808
30
0
11
202.54302024016289
21
-121.72659230897808
31
0
0
SPLINE
5
164
100
AcDbEntity
8
0
100
AcDbSpline
70
0
71
3
72
8
73
4
74
0
42
0.000000001
43
0.0000000001
44
0.0000000001
40
0
40
0
40
0
40
0
40
1
40
1
40
1
40
1
10
221.54306635086431
20
-121.72659230897808
30
0
10
221.70877544370481
20
-121.72659230897808
30
0
10
221.8431341676295
20
-121.59223358505329
30
0
10
221.8431341676295
20
-121.42652449221281
30
0
0
SPLINE
5
165
100
AcDbEntity
8
0
100
AcDbSpline
70
0
71
3
72
8
73
4
74
0
42
0.000000001
43
0.0000000001
44
0.0000000001
40
0
40
0
40
0
40
0
40
1
40
1
40
1
40
1
10
126.5430080521316
20
-121.72659230897808
30
0
10
126.7087171449721
20
-121.72659230897808
30
0
10
126.84307586889689
20
-121.59223358505329
30
0
10
126.84307586889689
20
-121.42652449221281
30
0
0
LINE
5
166
100
AcDbEntity
8
0
100
AcDbLine
10
107.8430297581955
20
-121.42652449221281
30
0
11
107.8430297581955
21
-108.02682560233362
31
0
0
LINE
5
167
100
AcDbEntity
8
0
100
AcDbLine
10
169.84320742281699
20
-108.02682560233362
30
0
11
169.84320742281699
21
-121.42652449221281
31
0
0
LINE
5
168
100
AcDbEntity
8
0
100
AcDbLine
10
227.14306906213778
20
-121.72659230897808
30
0
11
240.54311246156558
21
-121.72659230897808
31
0
0
LINE
5
169
100
AcDbEntity
8
0
100
AcDbLine
10
240.84318027833089
20
-121.42652449221281
30
0
11
240.84318027833089
21
-108.02682560233362
31
0
0
LINE
5
170
100
AcDbEntity
8
0
100
AcDbLine
10
94.143090796776718
20
-121.72659230897808
30
0
11
107.54313419620448
21
-121.72659230897808
31
0
0
SPLINE
5
171
100
AcDbEntity
8
0
100
AcDbSpline
70
0
71
3
72
8
73
4
74
0
42
0.000000001
43
0.0000000001
44
0.0000000001
40
0
40
0
40
0
40
0
40
1
40
1
40
1
40
1
10
34.343123363810051
20
-140.72663841967952
30
0
10
34.343123363810051
20
-142.10743269016757
30
0
10
35.462262632193458
20
-143.2267442133253
30
0
10
36.843056902681603
20
-143.2267442133253
30
0
0
SPLINE
5
172
100
AcDbEntity
8
0
100
AcDbSpline
70
0
71
3
72
8
73
4
74
0
42
0.000000001
43
0.0000000001
44
0.0000000001
40
0
40
0
40
0
40
0
40
1
40
1
40
1
40
1
10
170.1429307300337
20
-107.7267577855683
30
0
10
169.9772216371932
20
-107.7267577855683
30
0
10
169.84320742281699
20
-107.86111650949309
30
0
10
169.84320742281699
20
-108.02682560233362
30
0
0
LINE
5
173
100
AcDbEntity
8
0
100
AcDbLine
10
259.84288187948368
20
-67.226732025294012
30
0
11
36.843056902681603
21
-67.226732025294012
31
0
0
SPLINE
5
174
100
AcDbEntity
8
0
100
AcDbSpline
70
0
71
3
72
8
73
4
74
0
42
0.000000001
43
0.0000000001
44
0.0000000001
40
0
40
0
40
0
40
0
40
1
40
1
40
1
40
1
10
183.84304194622669
20
-108.02682560233362
30
0
10
183.84304194622669
20
-107.86111650949309
30
0
10
183.70868322230206
20
-107.7267577855683
30
0
10
183.54297412946153
20
-107.7267577855683
30
0
0
SPLINE
5
175
100
AcDbEntity
8
0
100
AcDbSpline
70
0
71
3
72
8
73
4
74
0
42
0.000000001
43
0.0000000001
44
0.0000000001
40
0
40
0
40
0
40
0
40
1
40
1
40
1
40
1
10
112.84306909071277
20
-121.42652449221281
30
0
10
112.84306909071277
20
-121.59223358505329
30
0
10
112.97742781463759
20
-121.72659230897808
30
0
10
113.14313690747808
20
-121.72659230897808
30
0
0
LINE
5
176
100
AcDbEntity
8
0
100
AcDbLine
10
126.84307586889689
20
-121.42652449221281
30
0
11
126.84307586889689
21
-108.02682560233362
31
0
0
LINE
5
177
100
AcDbEntity
8
0
100
AcDbLine
10
112.84306909071277
20
-108.02682560233362
30
0
11
112.84306909071277
21
-121.42652449221281
31
0
0
LINE
5
178
100
AcDbEntity
8
0
100
AcDbLine
10
170.1429307300337
20
-121.72659230897808
30
0
11
183.54297412946153
21
-121.72659230897808
31
0
0
LINE
5
179
100
AcDbEntity
8
0
100
AcDbLine
10
183.84304194622669
20
-121.42652449221281
30
0
11
183.84304194622669
21
-108.02682560233362
31
0
0
SPLINE
5
180
100
AcDbEntity
8
0
100
AcDbSpline
70
0
71
3
72
8
73
4
74
0
42
0.000000001
43
0.0000000001
44
0.0000000001
40
0
40
0
40
0
40
0
40
1
40
1
40
1
40
1
10
183.54297412946153
20
-121.72659230897808
30
0
10
183.70868322230206
20
-121.72659230897808
30
0
10
183.84304194622669
20
-121.59223358505329
30
0
10
183.84304194622669
20
-121.42652449221281
30
0
0
LINE
5
181
100
AcDbEntity
8
0
100
AcDbLine
10
183.54297412946153
20
-107.7267577855683
30
0
11
170.1429307300337
21
-107.7267577855683
31
0
0
SPLINE
5
182
100
AcDbEntity
8
0
100
AcDbSpline
70
0
71
3
72
8
73
4
74
0
42
0.000000001
43
0.0000000001
44
0.0000000001
40
0
40
0
40
0
40
0
40
1
40
1
40
1
40
1
10
202.54302024016289
20
-121.72659230897808
30
0
10
202.70872933300336
20
-121.72659230897808
30
0
10
202.84308805692808
20
-121.59223358505329
30
0
10
202.84308805692808
20
-121.42652449221281
30
0
0
LINE
5
183
100
AcDbEntity
8
0
100
AcDbLine
10
188.84290902396981
20
-108.02682560233362
30
0
11
188.84290902396981
21
-121.42652449221281
31
0
0
LINE
5
184
100
AcDbEntity
8
0
100
AcDbLine
10
202.84308805692808
20
-121.42652449221281
30
0
11
202.84308805692808
21
-108.02682560233362
31
0
0
LINE
5
185
100
AcDbEntity
8
0
100
AcDbLine
10
34.343123363810051
20
-69.726665564165557
30
0
11
34.343123363810051
21
-140.72663841967952
31
0
0
LINE
5
186
100
AcDbEntity
8
0
100
AcDbLine
10
221.54306635086431
20
-107.7267577855683
30
0
11
208.14302295143651
21
-107.7267577855683
31
0
0
SPLINE
5
187
100
AcDbEntity
8
0
100
AcDbSpline
70
0
71
3
72
8
73
4
74
0
42
0.000000001
43
0.0000000001
44
0.0000000001
40
0
40
0
40
0
40
0
40
1
40
1
40
1
40
1
10
240.84318027833089
20
-108.02682560233362
30
0
10
240.84318027833089
20
-107.86111650949309
30
0
10
240.70882155440609
20
-107.7267577855683
30
0
10
240.54311246156558
20
-107.7267577855683
30
0
0
LINE
5
188
100
AcDbEntity
8
0
100
AcDbLine
10
221.8431341676295
20
-121.42652449221281
30
0
11
221.8431341676295
21
-108.02682560233362
31
0
0
LINE
5
189
100
AcDbEntity
8
0
100
AcDbLine
10
208.14302295143651
20
-121.72659230897808
30
0
11
221.54306635086431
21
-121.72659230897808
31
0
0
SPLINE
5
190
100
AcDbEntity
8
0
100
AcDbSpline
70
0
71
3
72
8
73
4
74
0
42
0.000000001
43
0.0000000001
44
0.0000000001
40
0
40
0
40
0
40
0
40
1
40
1
40
1
40
1
10
126.84307586889689
20
-108.02682560233362
30
0
10
126.84307586889689
20
-107.86111650949309
30
0
10
126.7087171449721
20
-107.7267577855683
30
0
10
126.5430080521316
20
-107.7267577855683
30
0
0
SPLINE
5
191
100
AcDbEntity
8
0
100
AcDbSpline
70
0
71
3
72
8
73
4
74
0
42
0.000000001
43
0.0000000001
44
0.0000000001
40
0
40
0
40
0
40
0
40
1
40
1
40
1
40
1
10
207.84295513467117
20
-121.42652449221281
30
0
10
207.84295513467117
20
-121.59223358505329
30
0
10
207.97731385859592
20
-121.72659230897808
30
0
10
208.14302295143651
20
-121.72659230897808
30
0
0
LINE
5
192
100
AcDbEntity
8
0
100
AcDbLine
10
126.5430080521316
20
-107.7267577855683
30
0
11
113.14313690747807
21
-107.7267577855683
31
0
0
SPLINE
5
193
100
AcDbEntity
8
0
100
AcDbSpline
70
0
71
3
72
8
73
4
74
0
42
0.000000001
43
0.0000000001
44
0.0000000001
40
0
40
0
40
0
40
0
40
1
40
1
40
1
40
1
10
259.84288187948368
20
-143.2267442133253
30
0
10
261.22367614997194
20
-143.2267442133253
30
0
10
262.34298767312953
20
-142.10743269016757
30
0
10
262.34298767312953
20
-140.72663841967952
30
0
0
SPLINE
5
194
100
AcDbEntity
8
0
100
AcDbSpline
70
0
71
3
72
8
73
4
74
0
42
0.000000001
43
0.0000000001
44
0.0000000001
40
0
40
0
40
0
40
0
40
1
40
1
40
1
40
1
10
202.84308805692808
20
-108.02682560233362
30
0
10
202.84308805692808
20
-107.86111650949309
30
0
10
202.70872933300336
20
-107.7267577855683
30
0
10
202.54302024016289
20
-107.7267577855683
30
0
0
SPLINE
5
195
100
AcDbEntity
8
0
100
AcDbSpline
70
0
71
3
72
8
73
4
74
0
42
0.000000001
43
0.0000000001
44
0.0000000001
40
0
40
0
40
0
40
0
40
1
40
1
40
1
40
1
10
221.8431341676295
20
-108.02682560233362
30
0
10
221.8431341676295
20
-107.86111650949309
30
0
10
221.70877544370481
20
-107.7267577855683
30
0
10
221.54306635086431
20
-107.7267577855683
30
0
0
SPLINE
5
196
100
AcDbEntity
8
0
100
AcDbSpline
70
0
71
3
72
8
73
4
74
0
42
0.000000001
43
0.0000000001
44
0.0000000001
40
0
40
0
40
0
40
0
40
1
40
1
40
1
40
1
10
113.14313690747808
20
-107.7267577855683
30
0
10
112.97742781463759
20
-107.7267577855683
30
0
10
112.84306909071277
20
-107.86111650949309
30
0
10
112.84306909071277
20
-108.02682560233362
30
0
0
SPLINE
5
197
100
AcDbEntity
8
0
100
AcDbSpline
70
0
71
3
72
8
73
4
74
0
42
0.000000001
43
0.0000000001
44
0.0000000001
40
0
40
0
40
0
40
0
40
1
40
1
40
1
40
1
10
169.84320742281699
20
-121.42652449221281
30
0
10
169.84320742281699
20
-121.59223358505329
30
0
10
169.9772216371932
20
-121.72659230897808
30
0
10
170.1429307300337
20
-121.72659230897808
30
0
0
SPLINE
5
198
100
AcDbEntity
8
0
100
AcDbSpline
70
0
71
3
72
8
73
4
74
0
42
0.000000001
43
0.0000000001
44
0.0000000001
40
0
40
0
40
0
40
0
40
1
40
1
40
1
40
1
10
208.14302295143651
20
-107.7267577855683
30
0
10
207.97731385859592
20
-107.7267577855683
30
0
10
207.84295513467117
20
-107.86111650949309
30
0
10
207.84295513467117
20
-108.02682560233362
30
0
0
LINE
5
199
100
AcDbEntity
8
0
100
AcDbLine
10
226.84300124537259
20
-108.02682560233362
30
0
11
226.84300124537259
21
-121.42652449221281
31
0
0
LINE
5
200
100
AcDbEntity
8
0
100
AcDbLine
10
113.14313690747808
20
-121.72659230897808
30
0
11
126.5430080521316
21
-121.72659230897808
31
0
0
LINE
5
201
100
AcDbEntity
8
0
100
AcDbLine
10
93.843022980011483
20
-108.02682560233362
30
0
11
93.843022980011483
21
-121.42652449221281
31
0
0
SPLINE
5
202
100
AcDbEntity
8
0
100
AcDbSpline
70
0
71
3
72
8
73
4
74
0
42
0.000000001
43
0.0000000001
44
0.0000000001
40
0
40
0
40
0
40
0
40
1
40
1
40
1
40
1
10
188.84290902396981
20
-121.42652449221281
30
0
10
188.84290902396981
20
-121.59223358505329
30
0
10
188.97726774789459
20
-121.72659230897808
30
0
10
189.14297684073512
20
-121.72659230897808
30
0
0
LINE
5
203
100
AcDbEntity
8
0
100
AcDbLine
10
207.84295513467117
20
-108.02682560233362
30
0
11
207.84295513467117
21
-121.42652449221281
31
0
0
SPLINE
5
204
100
AcDbEntity
8
0
100
AcDbSpline
70
0
71
3
72
8
73
4
74
0
42
0.000000001
43
0.0000000001
44
0.0000000001
40
0
40
0
40
0
40
0
40
1
40
1
40
1
40
1
10
227.14306906213778
20
-107.7267577855683
30
0
10
226.97735996929725
20
-107.7267577855683
30
0
10
226.84300124537259
20
-107.86111650949309
30
0
10
226.84300124537259
20
-108.02682560233362
30
0
0
SPLINE
5
205
100
AcDbEntity
8
0
100
AcDbSpline
70
0
71
3
72
8
73
4
74
0
42
0.000000001
43
0.0000000001
44
0.0000000001
40
0
40
0
40
0
40
0
40
1
40
1
40
1
40
1
10
69.543041974801739
20
-83.726672342349602
30
0
10
69.708751067642254
20
-83.726672342349602
30
0
10
69.843109791567002
20
-83.592313618424839
30
0
10
69.843109791567002
20
-83.42660452558431
30
0
0
SPLINE
5
206
100
AcDbEntity
8
0
100
AcDbSpline
70
0
71
3
72
8
73
4
74
0
42
0.000000001
43
0.0000000001
44
0.0000000001
40
0
40
0
40
0
40
0
40
1
40
1
40
1
40
1
10
88.842983647494123
20
-70.026733380930807
30
0
10
88.842983647494123
20
-69.861024288090292
30
0
10
88.708797178343644
20
-69.726665564165557
30
0
10
88.543088085503115
20
-69.726665564165557
30
0
0
SPLINE
5
207
100
AcDbEntity
8
0
100
AcDbSpline
70
0
71
3
72
8
73
4
74
0
42
0.000000001
43
0.0000000001
44
0.0000000001
40
0
40
0
40
0
40
0
40
1
40
1
40
1
40
1
10
75.143044686075356
20
-69.726665564165557
30
0
10
74.977335593234841
20
-69.726665564165557
30
0
10
74.842976869310093
20
-69.861024288090292
30
0
10
74.842976869310093
20
-70.026733380930807
30
0
0
LINE
5
208
100
AcDbEntity
8
0
100
AcDbLine
10
259.54315857226698
20
-107.7267577855683
30
0
11
246.14311517283923
21
-107.7267577855683
31
0
0
SPLINE
5
209
100
AcDbEntity
8
0
100
AcDbSpline
70
0
71
3
72
8
73
4
74
0
42
0.000000001
43
0.0000000001
44
0.0000000001
40
0
40
0
40
0
40
0
40
1
40
1
40
1
40
1
10
246.14311517283923
20
-107.7267577855683
30
0
10
245.9774060799987
20
-107.7267577855683
30
0
10
245.84304735607401
20
-107.86111650949309
30
0
10
245.84304735607401
20
-108.02682560233362
30
0
0
LINE
5
210
100
AcDbEntity
8
0
100
AcDbLine
10
93.843022980011483
20
-70.026733380930807
30
0
11
93.843022980011483
21
-83.42660452558431
31
0
0
LINE
5
211
100
AcDbEntity
8
0
100
AcDbLine
10
113.14313690747808
20
-83.726672342349602
30
0
11
126.54300805213161
21
-83.726672342349602
31
0
0
LINE
5
212
100
AcDbEntity
8
0
100
AcDbLine
10
50.843063680865626
20
-83.42660452558431
30
0
11
50.843063680865626
21
-70.026733380930807
31
0
0
LINE
5
213
100
AcDbEntity
8
0
100
AcDbLine
10
37.14312471944686
20
-83.726672342349602
30
0
11
50.542995864100362
21
-83.726672342349602
31
0
0
SPLINE
5
214
100
AcDbEntity
8
0
100
AcDbSpline
70
0
71
3
72
8
73
4
74
0
42
0.000000001
43
0.0000000001
44
0.0000000001
40
0
40
0
40
0
40
0
40
1
40
1
40
1
40
1
10
37.14312471944686
20
-69.726665564165557
30
0
10
36.977415626606344
20
-69.726665564165557
30
0
10
36.843056902681603
20
-69.861024288090292
30
0
10
36.843056902681603
20
-70.026733380930807
30
0
0
LINE
5
215
100
AcDbEntity
8
0
100
AcDbLine
10
107.8430297581955
20
-83.42660452558431
30
0
11
107.8430297581955
21
-70.026733380930807
31
0
0
SPLINE
5
216
100
AcDbEntity
8
0
100
AcDbSpline
70
0
71
3
72
8
73
4
74
0
42
0.000000001
43
0.0000000001
44
0.0000000001
40
0
40
0
40
0
40
0
40
1
40
1
40
1
40
1
10
245.84304735607401
20
-121.42652449221281
30
0
10
245.84304735607401
20
-121.59223358505329
30
0
10
245.9774060799987
20
-121.72659230897808
30
0
10
246.14311517283923
20
-121.72659230897808
30
0
0
SPLINE
5
217
100
AcDbEntity
8
0
100
AcDbSpline
70
0
71
3
72
8
73
4
74
0
42
0.000000001
43
0.0000000001
44
0.0000000001
40
0
40
0
40
0
40
0
40
1
40
1
40
1
40
1
10
107.54313419620448
20
-83.726672342349602
30
0
10
107.70867103427081
20
-83.726672342349602
30
0
10
107.8430297581955
20
-83.592313618424839
30
0
10
107.8430297581955
20
-83.42660452558431
30
0
0
LINE
5
218
100
AcDbEntity
8
0
100
AcDbLine
10
112.84306909071277
20
-70.026733380930807
30
0
11
112.84306909071277
21
-83.42660452558431
31
0
0
LINE
5
219
100
AcDbEntity
8
0
100
AcDbLine
10
126.84307586889689
20
-83.42660452558431
30
0
11
126.84307586889689
21
-70.026733380930807
31
0
0
SPLINE
5
220
100
AcDbEntity
8
0
100
AcDbSpline
70
0
71
3
72
8
73
4
74
0
42
0.000000001
43
0.0000000001
44
0.0000000001
40
0
40
0
40
0
40
0
40
1
40
1
40
1
40
1
10
69.843109791567002
20
-70.026733380930807
30
0
10
69.843109791567002
20
-69.861024288090292
30
0
10
69.708751067642254
20
-69.726665564165557
30
0
10
69.543041974801739
20
-69.726665564165557
30
0
0
SPLINE
5
221
100
AcDbEntity
8
0
100
AcDbSpline
70
0
71
3
72
8
73
4
74
0
42
0.000000001
43
0.0000000001
44
0.0000000001
40
0
40
0
40
0
40
0
40
1
40
1
40
1
40
1
10
55.843103013382979
20
-83.42660452558431
30
0
10
55.843103013382979
20
-83.592313618424839
30
0
10
55.977289482533472
20
-83.726672342349602
30
0
10
56.142998575373966
20
-83.726672342349602
30
0
0
SPLINE
5
222
100
AcDbEntity
8
0
100
AcDbSpline
70
0
71
3
72
8
73
4
74
0
42
0.000000001
43
0.0000000001
44
0.0000000001
40
0
40
0
40
0
40
0
40
1
40
1
40
1
40
1
10
112.84306909071277
20
-83.42660452558431
30
0
10
112.84306909071277
20
-83.592313618424839
30
0
10
112.97742781463759
20
-83.726672342349602
30
0
10
113.14313690747808
20
-83.726672342349602
30
0
0
LINE
5
223
100
AcDbEntity
8
0
100
AcDbLine
10
36.843056902681603
20
-70.026733380930807
30
0
11
36.843056902681603
21
-83.42660452558431
31
0
0
SPLINE
5
224
100
AcDbEntity
8
0
100
AcDbSpline
70
0
71
3
72
8
73
4
74
0
42
0.000000001
43
0.0000000001
44
0.0000000001
40
0
40
0
40
0
40
0
40
1
40
1
40
1
40
1
10
126.5430080521316
20
-83.726672342349602
30
0
10
126.7087171449721
20
-83.726672342349602
30
0
10
126.84307586889689
20
-83.592313618424839
30
0
10
126.84307586889689
20
-83.42660452558431
30
0
0
SPLINE
5
225
100
AcDbEntity
8
0
100
AcDbSpline
70
0
71
3
72
8
73
4
74
0
42
0.000000001
43
0.0000000001
44
0.0000000001
40
0
40
0
40
0
40
0
40
1
40
1
40
1
40
1
10
36.843056902681603
20
-83.42660452558431
30
0
10
36.843056902681603
20
-83.592313618424839
30
0
10
36.977415626606344
20
-83.726672342349602
30
0
10
37.14312471944686
20
-83.726672342349602
30
0
0
LINE
5
226
100
AcDbEntity
8
0
100
AcDbLine
10
88.543088085503115
20
-69.726665564165557
30
0
11
75.143044686075356
21
-69.726665564165557
31
0
0
SPLINE
5
227
100
AcDbEntity
8
0
100
AcDbSpline
70
0
71
3
72
8
73
4
74
0
42
0.000000001
43
0.0000000001
44
0.0000000001
40
0
40
0
40
0
40
0
40
1
40
1
40
1
40
1
10
56.142998575373966
20
-69.726665564165557
30
0
10
55.977289482533472
20
-69.726665564165557
30
0
10
55.843103013382979
20
-69.861024288090292
30
0
10
55.843103013382979
20
-70.026733380930807
30
0
0
LINE
5
228
100
AcDbEntity
8
0
100
AcDbLine
10
94.143090796776718
20
-83.726672342349602
30
0
11
107.54313419620448
21
-83.726672342349602
31
0
0
SPLINE
5
229
100
AcDbEntity
8
0
100
AcDbSpline
70
0
71
3
72
8
73
4
74
0
42
0.000000001
43
0.0000000001
44
0.0000000001
40
0
40
0
40
0
40
0
40
1
40
1
40
1
40
1
10
93.843022980011483
20
-83.42660452558431
30
0
10
93.843022980011483
20
-83.592313618424839
30
0
10
93.977381703936217
20
-83.726672342349602
30
0
10
94.143090796776718
20
-83.726672342349602
30
0
0
LINE
5
230
100
AcDbEntity
8
0
100
AcDbLine
10
245.84304735607401
20
-108.02682560233362
30
0
11
245.84304735607401
21
-121.42652449221281
31
0
0
LINE
5
231
100
AcDbEntity
8
0
100
AcDbLine
10
56.142998575373966
20
-83.726672342349602
30
0
11
69.543041974801739
21
-83.726672342349602
31
0
0
SPLINE
5
232
100
AcDbEntity
8
0
100
AcDbSpline
70
0
71
3
72
8
73
4
74
0
42
0.000000001
43
0.0000000001
44
0.0000000001
40
0
40
0
40
0
40
0
40
1
40
1
40
1
40
1
10
50.843063680865626
20
-70.026733380930807
30
0
10
50.843063680865626
20
-69.861024288090292
30
0
10
50.708704956940878
20
-69.726665564165557
30
0
10
50.542995864100362
20
-69.726665564165557
30
0
0
SPLINE
5
233
100
AcDbEntity
8
0
100
AcDbSpline
70
0
71
3
72
8
73
4
74
0
42
0.000000001
43
0.0000000001
44
0.0000000001
40
0
40
0
40
0
40
0
40
1
40
1
40
1
40
1
10
107.8430297581955
20
-70.026733380930807
30
0
10
107.8430297581955
20
-69.861024288090292
30
0
10
107.70867103427081
20
-69.726665564165557
30
0
10
107.54313419620448
20
-69.726665564165557
30
0
0
LINE
5
234
100
AcDbEntity
8
0
100
AcDbLine
10
55.843103013382979
20
-70.026733380930807
30
0
11
55.843103013382979
21
-83.42660452558431
31
0
0
LINE
5
235
100
AcDbEntity
8
0
100
AcDbLine
10
69.543041974801739
20
-69.726665564165557
30
0
11
56.142998575373966
21
-69.726665564165557
31
0
0
LINE
5
236
100
AcDbEntity
8
0
100
AcDbLine
10
107.54313419620448
20
-69.726665564165557
30
0
11
94.143090796776718
21
-69.726665564165557
31
0
0
SPLINE
5
237
100
AcDbEntity
8
0
100
AcDbSpline
70
0
71
3
72
8
73
4
74
0
42
0.000000001
43
0.0000000001
44
0.0000000001
40
0
40
0
40
0
40
0
40
1
40
1
40
1
40
1
10
113.14313690747808
20
-69.726665564165557
30
0
10
112.97742781463759
20
-69.726665564165557
30
0
10
112.84306909071277
20
-69.861024288090292
30
0
10
112.84306909071277
20
-70.026733380930807
30
0
0
SPLINE
5
238
100
AcDbEntity
8
0
100
AcDbSpline
70
0
71
3
72
8
73
4
74
0
42
0.000000001
43
0.0000000001
44
0.0000000001
40
0
40
0
40
0
40
0
40
1
40
1
40
1
40
1
10
126.84307586889689
20
-70.026733380930807
30
0
10
126.84307586889689
20
-69.861024288090292
30
0
10
126.7087171449721
20
-69.726665564165557
30
0
10
126.5430080521316
20
-69.726665564165557
30
0
0
LINE
5
239
100
AcDbEntity
8
0
100
AcDbLine
10
126.5430080521316
20
-69.726665564165557
30
0
11
113.14313690747808
21
-69.726665564165557
31
0
0
LINE
5
240
100
AcDbEntity
8
0
100
AcDbLine
10
88.842983647494123
20
-83.42660452558431
30
0
11
88.842983647494123
21
-70.026733380930807
31
0
0
LINE
5
241
100
AcDbEntity
8
0
100
AcDbLine
10
50.542995864100362
20
-69.726665564165557
30
0
11
37.14312471944686
21
-69.726665564165557
31
0
0
LINE
5
242
100
AcDbEntity
8
0
100
AcDbLine
10
74.842976869310093
20
-70.026733380930807
30
0
11
74.842976869310093
21
-83.42660452558431
31
0
0
LINE
5
243
100
AcDbEntity
8
0
100
AcDbLine
10
75.143044686075356
20
-83.726672342349602
30
0
11
88.543088085503115
21
-83.726672342349602
31
0
0
LINE
5
244
100
AcDbEntity
8
0
100
AcDbLine
10
246.14311517283923
20
-121.72659230897808
30
0
11
259.54315857226698
21
-121.72659230897808
31
0
0
SPLINE
5
245
100
AcDbEntity
8
0
100
AcDbSpline
70
0
71
3
72
8
73
4
74
0
42
0.000000001
43
0.0000000001
44
0.0000000001
40
0
40
0
40
0
40
0
40
1
40
1
40
1
40
1
10
74.842976869310093
20
-83.42660452558431
30
0
10
74.842976869310093
20
-83.592313618424839
30
0
10
74.977335593234841
20
-83.726672342349602
30
0
10
75.143044686075356
20
-83.726672342349602
30
0
0
SPLINE
5
246
100
AcDbEntity
8
0
100
AcDbSpline
70
0
71
3
72
8
73
4
74
0
42
0.000000001
43
0.0000000001
44
0.0000000001
40
0
40
0
40
0
40
0
40
1
40
1
40
1
40
1
10
259.54315857226698
20
-121.72659230897808
30
0
10
259.7088676651075
20
-121.72659230897808
30
0
10
259.84288187948368
20
-121.59223358505329
30
0
10
259.84288187948368
20
-121.42652449221281
30
0
0
SPLINE
5
247
100
AcDbEntity
8
0
100
AcDbSpline
70
0
71
3
72
8
73
4
74
0
42
0.000000001
43
0.0000000001
44
0.0000000001
40
0
40
0
40
0
40
0
40
1
40
1
40
1
40
1
10
94.143090796776718
20
-69.726665564165557
30
0
10
93.977381703936217
20
-69.726665564165557
30
0
10
93.843022980011483
20
-69.861024288090292
30
0
10
93.843022980011483
20
-70.026733380930807
30
0
0
LINE
5
248
100
AcDbEntity
8
0
100
AcDbLine
10
240.54311246156558
20
-107.7267577855683
30
0
11
227.14306906213778
21
-107.7267577855683
31
0
0
SPLINE
5
249
100
AcDbEntity
8
0
100
AcDbSpline
70
0
71
3
72
8
73
4
74
0
42
0.000000001
43
0.0000000001
44
0.0000000001
40
0
40
0
40
0
40
0
40
1
40
1
40
1
40
1
10
259.84288187948368
20
-108.02682560233362
30
0
10
259.84288187948368
20
-107.86111650949309
30
0
10
259.7088676651075
20
-107.7267577855683
30
0
10
259.54315857226698
20
-107.7267577855683
30
0
0
SPLINE
5
250
100
AcDbEntity
8
0
100
AcDbSpline
70
0
71
3
72
8
73
4
74
0
42
0.000000001
43
0.0000000001
44
0.0000000001
40
0
40
0
40
0
40
0
40
1
40
1
40
1
40
1
10
88.543088085503115
20
-83.726672342349602
30
0
10
88.708797178343644
20
-83.726672342349602
30
0
10
88.842983647494123
20
-83.592313618424839
30
0
10
88.842983647494123
20
-83.42660452558431
30
0
0
SPLINE
5
251
100
AcDbEntity
8
0
100
AcDbSpline
70
0
71
3
72
8
73
4
74
0
42
0.000000001
43
0.0000000001
44
0.0000000001
40
0
40
0
40
0
40
0
40
1
40
1
40
1
40
1
10
50.542995864100362
20
-83.726672342349602
30
0
10
50.708704956940878
20
-83.726672342349602
30
0
10
50.843063680865626
20
-83.592313618424839
30
0
10
50.843063680865626
20
-83.42660452558431
30
0
0
LINE
5
252
100
AcDbEntity
8
0
100
AcDbLine
10
259.84288187948368
20
-121.42652449221281
30
0
11
259.84288187948368
21
-108.02682560233362
31
0
0
LINE
5
253
100
AcDbEntity
8
0
100
AcDbLine
10
69.843109791567002
20
-83.42660452558431
30
0
11
69.843109791567002
21
-70.026733380930807
31
0
0
LINE
5
254
100
AcDbEntity
8
0
100
AcDbLine
10
221.54306635086431
20
-69.726665564165557
30
0
11
208.14302295143651
21
-69.726665564165557
31
0
0
LINE
5
255
100
AcDbEntity
8
0
100
AcDbLine
10
55.843103013382979
20
-89.026607236857927
30
0
11
55.843103013382979
21
-102.42665063628571
31
0
0
SPLINE
5
256
100
AcDbEntity
8
0
100
AcDbSpline
70
0
71
3
72
8
73
4
74
0
42
0.000000001
43
0.0000000001
44
0.0000000001
40
0
40
0
40
0
40
0
40
1
40
1
40
1
40
1
10
188.84290902396981
20
-83.42660452558431
30
0
10
188.84290902396981
20
-83.592313618424839
30
0
10
188.97726774789459
20
-83.726672342349602
30
0
10
189.14297684073512
20
-83.726672342349602
30
0
0
LINE
5
257
100
AcDbEntity
8
0
100
AcDbLine
10
88.543088085503115
20
-88.726711674866948
30
0
11
75.143044686075356
21
-88.726711674866948
31
0
0
SPLINE
5
258
100
AcDbEntity
8
0
100
AcDbSpline
70
0
71
3
72
8
73
4
74
0
42
0.000000001
43
0.0000000001
44
0.0000000001
40
0
40
0
40
0
40
0
40
1
40
1
40
1
40
1
10
189.14297684073512
20
-69.726665564165557
30
0
10
188.97726774789459
20
-69.726665564165557
30
0
10
188.84290902396981
20
-69.861024288090292
30
0
10
188.84290902396981
20
-70.026733380930807
30
0
0
LINE
5
259
100
AcDbEntity
8
0
100
AcDbLine
10
207.84295513467117
20
-70.026733380930807
30
0
11
207.84295513467117
21
-83.42660452558431
31
0
0
SPLINE
5
260
100
AcDbEntity
8
0
100
AcDbSpline
70
0
71
3
72
8
73
4
74
0
42
0.000000001
43
0.0000000001
44
0.0000000001
40
0
40
0
40
0
40
0
40
1
40
1
40
1
40
1
10
169.84320742281699
20
-83.42660452558431
30
0
10
169.84320742281699
20
-83.592313618424839
30
0
10
169.9772216371932
20
-83.726672342349602
30
0
10
170.1429307300337
20
-83.726672342349602
30
0
0
SPLINE
5
261
100
AcDbEntity
8
0
100
AcDbSpline
70
0
71
3
72
8
73
4
74
0
42
0.000000001
43
0.0000000001
44
0.0000000001
40
0
40
0
40
0
40
0
40
1
40
1
40
1
40
1
10
227.14306906213778
20
-69.726665564165557
30
0
10
226.97735996929725
20
-69.726665564165557
30
0
10
226.84300124537259
20
-69.861024288090292
30
0
10
226.84300124537259
20
-70.026733380930807
30
0
0
LINE
5
262
100
AcDbEntity
8
0
100
AcDbLine
10
226.84300124537259
20
-70.026733380930807
30
0
11
226.84300124537259
21
-83.42660452558431
31
0
0
LINE
5
263
100
AcDbEntity
8
0
100
AcDbLine
10
183.54297412946153
20
-69.726665564165557
30
0
11
170.1429307300337
21
-69.726665564165557
31
0
0
SPLINE
5
264
100
AcDbEntity
8
0
100
AcDbSpline
70
0
71
3
72
8
73
4
74
0
42
0.000000001
43
0.0000000001
44
0.0000000001
40
0
40
0
40
0
40
0
40
1
40
1
40
1
40
1
10
226.84300124537259
20
-83.42660452558431
30
0
10
226.84300124537259
20
-83.592313618424839
30
0
10
226.97735996929725
20
-83.726672342349602
30
0
10
227.14306906213778
20
-83.726672342349602
30
0
0
SPLINE
5
265
100
AcDbEntity
8
0
100
AcDbSpline
70
0
71
3
72
8
73
4
74
0
42
0.000000001
43
0.0000000001
44
0.0000000001
40
0
40
0
40
0
40
0
40
1
40
1
40
1
40
1
10
245.84304735607401
20
-83.42660452558431
30
0
10
245.84304735607401
20
-83.592313618424839
30
0
10
245.9774060799987
20
-83.726672342349602
30
0
10
246.14311517283923
20
-83.726672342349602
30
0
0
SPLINE
5
266
100
AcDbEntity
8
0
100
AcDbSpline
70
0
71
3
72
8
73
4
74
0
42
0.000000001
43
0.0000000001
44
0.0000000001
40
0
40
0
40
0
40
0
40
1
40
1
40
1
40
1
10
183.84304194622669
20
-70.026733380930807
30
0
10
183.84304194622669
20
-69.861024288090292
30
0
10
183.70868322230206
20
-69.726665564165557
30
0
10
183.54297412946153
20
-69.726665564165557
30
0
0
SPLINE
5
267
100
AcDbEntity
8
0
100
AcDbSpline
70
0
71
3
72
8
73
4
74
0
42
0.000000001
43
0.0000000001
44
0.0000000001
40
0
40
0
40
0
40
0
40
1
40
1
40
1
40
1
10
202.84308805692808
20
-70.026733380930807
30
0
10
202.84308805692808
20
-69.861024288090292
30
0
10
202.70872933300336
20
-69.726665564165557
30
0
10
202.54302024016289
20
-69.726665564165557
30
0
0
LINE
5
268
100
AcDbEntity
8
0
100
AcDbLine
10
170.1429307300337
20
-83.726672342349602
30
0
11
183.54297412946153
21
-83.726672342349602
31
0
0
LINE
5
269
100
AcDbEntity
8
0
100
AcDbLine
10
202.54302024016289
20
-69.726665564165557
30
0
11
189.14297684073512
21
-69.726665564165557
31
0
0
SPLINE
5
270
100
AcDbEntity
8
0
100
AcDbSpline
70
0
71
3
72
8
73
4
74
0
42
0.000000001
43
0.0000000001
44
0.0000000001
40
0
40
0
40
0
40
0
40
1
40
1
40
1
40
1
10
259.54315857226698
20
-83.726672342349602
30
0
10
259.7088676651075
20
-83.726672342349602
30
0
10
259.84288187948368
20
-83.592313618424839
30
0
10
259.84288187948368
20
-83.42660452558431
30
0
0
LINE
5
271
100
AcDbEntity
8
0
100
AcDbLine
10
36.843056902681603
20
-89.026607236857927
30
0
11
36.843056902681603
21
-102.42665063628571
31
0
0
LINE
5
272
100
AcDbEntity
8
0
100
AcDbLine
10
221.8431341676295
20
-83.42660452558431
30
0
11
221.8431341676295
21
-70.026733380930807
31
0
0
LINE
5
273
100
AcDbEntity
8
0
100
AcDbLine
10
169.84320742281699
20
-70.026733380930807
30
0
11
169.84320742281699
21
-83.42660452558431
31
0
0
LINE
5
274
100
AcDbEntity
8
0
100
AcDbLine
10
183.84304194622669
20
-83.42660452558431
30
0
11
183.84304194622669
21
-70.026733380930807
31
0
0
LINE
5
275
100
AcDbEntity
8
0
100
AcDbLine
10
208.14302295143651
20
-83.726672342349602
30
0
11
221.54306635086431
21
-83.726672342349602
31
0
0
LINE
5
276
100
AcDbEntity
8
0
100
AcDbLine
10
189.14297684073512
20
-83.726672342349602
30
0
11
202.54302024016289
21
-83.726672342349602
31
0
0
SPLINE
5
277
100
AcDbEntity
8
0
100
AcDbSpline
70
0
71
3
72
8
73
4
74
0
42
0.000000001
43
0.0000000001
44
0.0000000001
40
0
40
0
40
0
40
0
40
1
40
1
40
1
40
1
10
221.8431341676295
20
-70.026733380930807
30
0
10
221.8431341676295
20
-69.861024288090292
30
0
10
221.70877544370481
20
-69.726665564165557
30
0
10
221.54306635086431
20
-69.726665564165557
30
0
0
SPLINE
5
278
100
AcDbEntity
8
0
100
AcDbSpline
70
0
71
3
72
8
73
4
74
0
42
0.000000001
43
0.0000000001
44
0.0000000001
40
0
40
0
40
0
40
0
40
1
40
1
40
1
40
1
10
207.84295513467117
20
-83.42660452558431
30
0
10
207.84295513467117
20
-83.592313618424839
30
0
10
207.97731385859592
20
-83.726672342349602
30
0
10
208.14302295143651
20
-83.726672342349602
30
0
0
LINE
5
279
100
AcDbEntity
8
0
100
AcDbLine
10
240.54311246156558
20
-69.726665564165557
30
0
11
227.14306906213778
21
-69.726665564165557
31
0
0
SPLINE
5
280
100
AcDbEntity
8
0
100
AcDbSpline
70
0
71
3
72
8
73
4
74
0
42
0.000000001
43
0.0000000001
44
0.0000000001
40
0
40
0
40
0
40
0
40
1
40
1
40
1
40
1
10
50.542995864100362
20
-102.72671845305099
30
0
10
50.708704956940878
20
-102.72671845305099
30
0
10
50.843063680865626
20
-102.5923597291262
30
0
10
50.843063680865626
20
-102.4266506362857
30
0
0
LINE
5
281
100
AcDbEntity
8
0
100
AcDbLine
10
202.84308805692808
20
-83.42660452558431
30
0
11
202.84308805692808
21
-70.026733380930807
31
0
0
SPLINE
5
282
100
AcDbEntity
8
0
100
AcDbSpline
70
0
71
3
72
8
73
4
74
0
42
0.000000001
43
0.0000000001
44
0.0000000001
40
0
40
0
40
0
40
0
40
1
40
1
40
1
40
1
10
56.142998575373966
20
-88.726711674866948
30
0
10
55.977289482533472
20
-88.726711674866948
30
0
10
55.843103013382979
20
-88.860898144017412
30
0
10
55.843103013382979
20
-89.026607236857927
30
0
0
LINE
5
283
100
AcDbEntity
8
0
100
AcDbLine
10
50.843063680865626
20
-102.4266506362857
30
0
11
50.843063680865626
21
-89.026607236857913
31
0
0
SPLINE
5
284
100
AcDbEntity
8
0
100
AcDbSpline
70
0
71
3
72
8
73
4
74
0
42
0.000000001
43
0.0000000001
44
0.0000000001
40
0
40
0
40
0
40
0
40
1
40
1
40
1
40
1
10
88.842983647494123
20
-89.026607236857927
30
0
10
88.842983647494123
20
-88.860898144017412
30
0
10
88.708797178343644
20
-88.726711674866948
30
0
10
88.543088085503115
20
-88.726711674866948
30
0
0
LINE
5
285
100
AcDbEntity
8
0
100
AcDbLine
10
56.142998575373966
20
-102.72671845305099
30
0
11
69.543041974801739
21
-102.72671845305099
31
0
0
LINE
5
286
100
AcDbEntity
8
0
100
AcDbLine
10
69.543041974801739
20
-88.726711674866948
30
0
11
56.142998575373966
21
-88.726711674866948
31
0
0
LINE
5
287
100
AcDbEntity
8
0
100
AcDbLine
10
240.84318027833089
20
-83.42660452558431
30
0
11
240.84318027833089
21
-70.026733380930807
31
0
0
LINE
5
288
100
AcDbEntity
8
0
100
AcDbLine
10
259.54315857226698
20
-69.726665564165557
30
0
11
246.14311517283923
21
-69.726665564165557
31
0
0
LINE
5
289
100
AcDbEntity
8
0
100
AcDbLine
10
50.542995864100362
20
-88.726711674866948
30
0
11
37.143124719446867
21
-88.726711674866948
31
0
0
LINE
5
290
100
AcDbEntity
8
0
100
AcDbLine
10
74.842976869310093
20
-89.026607236857927
30
0
11
74.842976869310093
21
-102.42665063628571
31
0
0
LINE
5
291
100
AcDbEntity
8
0
100
AcDbLine
10
75.143044686075356
20
-102.72671845305099
30
0
11
88.543088085503115
21
-102.72671845305099
31
0
0
SPLINE
5
292
100
AcDbEntity
8
0
100
AcDbSpline
70
0
71
3
72
8
73
4
74
0
42
0.000000001
43
0.0000000001
44
0.0000000001
40
0
40
0
40
0
40
0
40
1
40
1
40
1
40
1
10
36.843056902681603
20
-102.4266506362857
30
0
10
36.843056902681603
20
-102.5923597291262
30
0
10
36.977415626606344
20
-102.72671845305099
30
0
10
37.14312471944686
20
-102.72671845305099
30
0
0
SPLINE
5
293
100
AcDbEntity
8
0
100
AcDbSpline
70
0
71
3
72
8
73
4
74
0
42
0.000000001
43
0.0000000001
44
0.0000000001
40
0
40
0
40
0
40
0
40
1
40
1
40
1
40
1
10
221.54306635086431
20
-83.726672342349602
30
0
10
221.70877544370481
20
-83.726672342349602
30
0
10
221.8431341676295
20
-83.592313618424839
30
0
10
221.8431341676295
20
-83.42660452558431
30
0
0
LINE
5
294
100
AcDbEntity
8
0
100
AcDbLine
10
259.84288187948368
20
-83.42660452558431
30
0
11
259.84288187948368
21
-70.026733380930807
31
0
0
LINE
5
295
100
AcDbEntity
8
0
100
AcDbLine
10
246.14311517283923
20
-83.726672342349602
30
0
11
259.54315857226698
21
-83.726672342349602
31
0
0
SPLINE
5
296
100
AcDbEntity
8
0
100
AcDbSpline
70
0
71
3
72
8
73
4
74
0
42
0.000000001
43
0.0000000001
44
0.0000000001
40
0
40
0
40
0
40
0
40
1
40
1
40
1
40
1
10
74.842976869310093
20
-102.4266506362857
30
0
10
74.842976869310093
20
-102.5923597291262
30
0
10
74.977335593234841
20
-102.72671845305099
30
0
10
75.143044686075356
20
-102.72671845305099
30
0
0
SPLINE
5
297
100
AcDbEntity
8
0
100
AcDbSpline
70
0
71
3
72
8
73
4
74
0
42
0.000000001
43
0.0000000001
44
0.0000000001
40
0
40
0
40
0
40
0
40
1
40
1
40
1
40
1
10
88.543088085503115
20
-102.72671845305099
30
0
10
88.708797178343644
20
-102.72671845305099
30
0
10
88.842983647494123
20
-102.5923597291262
30
0
10
88.842983647494123
20
-102.4266506362857
30
0
0
SPLINE
5
298
100
AcDbEntity
8
0
100
AcDbSpline
70
0
71
3
72
8
73
4
74
0
42
0.000000001
43
0.0000000001
44
0.0000000001
40
0
40
0
40
0
40
0
40
1
40
1
40
1
40
1
10
246.14311517283923
20
-69.726665564165557
30
0
10
245.9774060799987
20
-69.726665564165557
30
0
10
245.84304735607401
20
-69.861024288090292
30
0
10
245.84304735607401
20
-70.026733380930807
30
0
0
SPLINE
5
299
100
AcDbEntity
8
0
100
AcDbSpline
70
0
71
3
72
8
73
4
74
0
42
0.000000001
43
0.0000000001
44
0.0000000001
40
0
40
0
40
0
40
0
40
1
40
1
40
1
40
1
10
240.84318027833089
20
-70.026733380930807
30
0
10
240.84318027833089
20
-69.861024288090292
30
0
10
240.70882155440609
20
-69.726665564165557
30
0
10
240.54311246156558
20
-69.726665564165557
30
0
0
SPLINE
5
300
100
AcDbEntity
8
0
100
AcDbSpline
70
0
71
3
72
8
73
4
74
0
42
0.000000001
43
0.0000000001
44
0.0000000001
40
0
40
0
40
0
40
0
40
1
40
1
40
1
40
1
10
75.143044686075356
20
-88.726711674866948
30
0
10
74.977335593234841
20
-88.726711674866948
30
0
10
74.842976869310093
20
-88.860898144017412
30
0
10
74.842976869310093
20
-89.026607236857927
30
0
0
SPLINE
5
301
100
AcDbEntity
8
0
100
AcDbSpline
70
0
71
3
72
8
73
4
74
0
42
0.000000001
43
0.0000000001
44
0.0000000001
40
0
40
0
40
0
40
0
40
1
40
1
40
1
40
1
10
202.54302024016289
20
-83.726672342349602
30
0
10
202.70872933300336
20
-83.726672342349602
30
0
10
202.84308805692808
20
-83.592313618424839
30
0
10
202.84308805692808
20
-83.42660452558431
30
0
0
SPLINE
5
302
100
AcDbEntity
8
0
100
AcDbSpline
70
0
71
3
72
8
73
4
74
0
42
0.000000001
43
0.0000000001
44
0.0000000001
40
0
40
0
40
0
40
0
40
1
40
1
40
1
40
1
10
259.84288187948368
20
-70.026733380930807
30
0
10
259.84288187948368
20
-69.861024288090292
30
0
10
259.7088676651075
20
-69.726665564165557
30
0
10
259.54315857226698
20
-69.726665564165557
30
0
0
LINE
5
303
100
AcDbEntity
8
0
100
AcDbLine
10
188.84290902396981
20
-70.026733380930807
30
0
11
188.84290902396981
21
-83.42660452558431
31
0
0
LINE
5
304
100
AcDbEntity
8
0
100
AcDbLine
10
227.14306906213778
20
-83.726672342349602
30
0
11
240.54311246156558
21
-83.726672342349602
31
0
0
SPLINE
5
305
100
AcDbEntity
8
0
100
AcDbSpline
70
0
71
3
72
8
73
4
74
0
42
0.000000001
43
0.0000000001
44
0.0000000001
40
0
40
0
40
0
40
0
40
1
40
1
40
1
40
1
10
55.843103013382979
20
-102.4266506362857
30
0
10
55.843103013382979
20
-102.5923597291262
30
0
10
55.977289482533472
20
-102.72671845305099
30
0
10
56.142998575373966
20
-102.72671845305099
30
0
0
SPLINE
5
306
100
AcDbEntity
8
0
100
AcDbSpline
70
0
71
3
72
8
73
4
74
0
42
0.000000001
43
0.0000000001
44
0.0000000001
40
0
40
0
40
0
40
0
40
1
40
1
40
1
40
1
10
37.14312471944686
20
-88.726711674866948
30
0
10
36.977415626606344
20
-88.726711674866948
30
0
10
36.843056902681603
20
-88.860898144017412
30
0
10
36.843056902681603
20
-89.026607236857927
30
0
0
LINE
5
307
100
AcDbEntity
8
0
100
AcDbLine
10
69.843109791567002
20
-102.4266506362857
30
0
11
69.843109791567002
21
-89.026607236857913
31
0
0
SPLINE
5
308
100
AcDbEntity
8
0
100
AcDbSpline
70
0
71
3
72
8
73
4
74
0
42
0.000000001
43
0.0000000001
44
0.0000000001
40
0
40
0
40
0
40
0
40
1
40
1
40
1
40
1
10
208.14302295143651
20
-69.726665564165557
30
0
10
207.97731385859592
20
-69.726665564165557
30
0
10
207.84295513467117
20
-69.861024288090292
30
0
10
207.84295513467117
20
-70.026733380930807
30
0
0
SPLINE
5
309
100
AcDbEntity
8
0
100
AcDbSpline
70
0
71
3
72
8
73
4
74
0
42
0.000000001
43
0.0000000001
44
0.0000000001
40
0
40
0
40
0
40
0
40
1
40
1
40
1
40
1
10
183.54297412946153
20
-83.726672342349602
30
0
10
183.70868322230206
20
-83.726672342349602
30
0
10
183.84304194622669
20
-83.592313618424839
30
0
10
183.84304194622669
20
-83.42660452558431
30
0
0
SPLINE
5
310
100
AcDbEntity
8
0
100
AcDbSpline
70
0
71
3
72
8
73
4
74
0
42
0.000000001
43
0.0000000001
44
0.0000000001
40
0
40
0
40
0
40
0
40
1
40
1
40
1
40
1
10
240.54311246156558
20
-83.726672342349602
30
0
10
240.70882155440609
20
-83.726672342349602
30
0
10
240.84318027833089
20
-83.592313618424839
30
0
10
240.84318027833089
20
-83.42660452558431
30
0
0
SPLINE
5
311
100
AcDbEntity
8
0
100
AcDbSpline
70
0
71
3
72
8
73
4
74
0
42
0.000000001
43
0.0000000001
44
0.0000000001
40
0
40
0
40
0
40
0
40
1
40
1
40
1
40
1
10
50.843063680865626
20
-89.026607236857927
30
0
10
50.843063680865626
20
-88.860898144017412
30
0
10
50.708704956940878
20
-88.726711674866948
30
0
10
50.542995864100362
20
-88.726711674866948
30
0
0
SPLINE
5
312
100
AcDbEntity
8
0
100
AcDbSpline
70
0
71
3
72
8
73
4
74
0
42
0.000000001
43
0.0000000001
44
0.0000000001
40
0
40
0
40
0
40
0
40
1
40
1
40
1
40
1
10
170.1429307300337
20
-69.726665564165557
30
0
10
169.9772216371932
20
-69.726665564165557
30
0
10
169.84320742281699
20
-69.861024288090292
30
0
10
169.84320742281699
20
-70.026733380930807
30
0
0
LINE
5
313
100
AcDbEntity
8
0
100
AcDbLine
10
245.84304735607401
20
-70.026733380930807
30
0
11
245.84304735607401
21
-83.42660452558431
31
0
0
SPLINE
5
314
100
AcDbEntity
8
0
100
AcDbSpline
70
0
71
3
72
8
73
4
74
0
42
0.000000001
43
0.0000000001
44
0.0000000001
40
0
40
0
40
0
40
0
40
1
40
1
40
1
40
1
10
69.843109791567002
20
-89.026607236857927
30
0
10
69.843109791567002
20
-88.860898144017412
30
0
10
69.708751067642254
20
-88.726711674866948
30
0
10
69.543041974801739
20
-88.726711674866948
30
0
0
LINE
5
315
100
AcDbEntity
8
0
100
AcDbLine
10
37.14312471944686
20
-102.72671845305099
30
0
11
50.542995864100362
21
-102.72671845305099
31
0
0
SPLINE
5
316
100
AcDbEntity
8
0
100
AcDbSpline
70
0
71
3
72
8
73
4
74
0
42
0.000000001
43
0.0000000001
44
0.0000000001
40
0
40
0
40
0
40
0
40
1
40
1
40
1
40
1
10
69.543041974801739
20
-102.72671845305099
30
0
10
69.708751067642254
20
-102.72671845305099
30
0
10
69.843109791567002
20
-102.5923597291262
30
0
10
69.843109791567002
20
-102.4266506362857
30
0
0
SPLINE
5
317
100
AcDbEntity
8
0
100
AcDbSpline
70
0
71
3
72
8
73
4
74
0
42
0.000000001
43
0.0000000001
44
0.0000000001
40
0
40
0
40
0
40
0
40
1
40
1
40
1
40
1
10
93.843022980011483
20
-121.42652449221281
30
0
10
93.843022980011483
20
-121.59223358505329
30
0
10
93.977381703936217
20
-121.72659230897808
30
0
10
94.143090796776718
20
-121.72659230897808
30
0
0
LINE
5
318
100
AcDbEntity
8
0
100
AcDbLine
10
94.143090796776718
20
-140.72663841967952
30
0
11
107.54313419620448
21
-140.72663841967952
31
0
0
SPLINE
5
319
100
AcDbEntity
8
0
100
AcDbSpline
70
0
71
3
72
8
73
4
74
0
42
0.000000001
43
0.0000000001
44
0.0000000001
40
0
40
0
40
0
40
0
40
1
40
1
40
1
40
1
10
74.842976869310093
20
-140.42657060291421
30
0
10
74.842976869310093
20
-140.59227969575471
30
0
10
74.977335593234841
20
-140.72663841967952
30
0
10
75.143044686075356
20
-140.72663841967952
30
0
0
SPLINE
5
320
100
AcDbEntity
8
0
100
AcDbSpline
70
0
71
3
72
8
73
4
74
0
42
0.000000001
43
0.0000000001
44
0.0000000001
40
0
40
0
40
0
40
0
40
1
40
1
40
1
40
1
10
94.143090796776718
20
-88.726711674866948
30
0
10
93.977381703936217
20
-88.726711674866948
30
0
10
93.843022980011483
20
-88.860898144017412
30
0
10
93.843022980011483
20
-89.026607236857927
30
0
0
LINE
5
321
100
AcDbEntity
8
0
100
AcDbLine
10
88.842983647494123
20
-102.4266506362857
30
0
11
88.842983647494123
21
-89.026607236857927
31
0
0
SPLINE
5
322
100
AcDbEntity
8
0
100
AcDbSpline
70
0
71
3
72
8
73
4
74
0
42
0.000000001
43
0.0000000001
44
0.0000000001
40
0
40
0
40
0
40
0
40
1
40
1
40
1
40
1
10
107.8430297581955
20
-127.02652720348641
30
0
10
107.8430297581955
20
-126.86081811064591
30
0
10
107.70867103427081
20
-126.7268038962697
30
0
10
107.54313419620448
20
-126.7268038962697
30
0
0
LINE
5
323
100
AcDbEntity
8
0
100
AcDbLine
10
170.1429307300337
20
-140.72663841967952
30
0
11
183.54297412946153
21
-140.72663841967952
31
0
0
SPLINE
5
324
100
AcDbEntity
8
0
100
AcDbSpline
70
0
71
3
72
8
73
4
74
0
42
0.000000001
43
0.0000000001
44
0.0000000001
40
0
40
0
40
0
40
0
40
1
40
1
40
1
40
1
10
169.84320742281699
20
-140.42657060291421
30
0
10
169.84320742281699
20
-140.59227969575471
30
0
10
169.9772216371932
20
-140.72663841967952
30
0
10
170.1429307300337
20
-140.72663841967952
30
0
0
LINE
5
325
100
AcDbEntity
8
0
100
AcDbLine
10
107.54313419620448
20
-107.7267577855683
30
0
11
94.143090796776718
21
-107.7267577855683
31
0
0
LINE
5
326
100
AcDbEntity
8
0
100
AcDbLine
10
88.543088085503115
20
-126.7268038962697
30
0
11
75.143044686075356
21
-126.7268038962697
31
0
0
LINE
5
327
100
AcDbEntity
8
0
100
AcDbLine
10
107.8430297581955
20
-140.42657060291421
30
0
11
107.8430297581955
21
-127.02652720348641
31
0
0
SPLINE
5
328
100
AcDbEntity
8
0
100
AcDbSpline
70
0
71
3
72
8
73
4
74
0
42
0.000000001
43
0.0000000001
44
0.0000000001
40
0
40
0
40
0
40
0
40
1
40
1
40
1
40
1
10
126.5430080521316
20
-140.72663841967952
30
0
10
126.7087171449721
20
-140.72663841967952
30
0
10
126.84307586889689
20
-140.59227969575471
30
0
10
126.84307586889689
20
-140.42657060291421
30
0
0
LINE
5
329
100
AcDbEntity
8
0
100
AcDbLine
10
183.84304194622669
20
-140.42657060291421
30
0
11
183.84304194622669
21
-127.02652720348641
31
0
0
LINE
5
330
100
AcDbEntity
8
0
100
AcDbLine
10
75.143044686075356
20
-140.72663841967952
30
0
11
88.543088085503115
21
-140.72663841967952
31
0
0
LINE
5
331
100
AcDbEntity
8
0
100
AcDbLine
10
74.842976869310093
20
-127.02652720348641
30
0
11
74.842976869310093
21
-140.42657060291421
31
0
0
SPLINE
5
332
100
AcDbEntity
8
0
100
AcDbSpline
70
0
71
3
72
8
73
4
74
0
42
0.000000001
43
0.0000000001
44
0.0000000001
40
0
40
0
40
0
40
0
40
1
40
1
40
1
40
1
10
88.842983647494123
20
-127.02652720348641
30
0
10
88.842983647494123
20
-126.86081811064591
30
0
10
88.708797178343644
20
-126.7268038962697
30
0
10
88.543088085503115
20
-126.7268038962697
30
0
0
SPLINE
5
333
100
AcDbEntity
8
0
100
AcDbSpline
70
0
71
3
72
8
73
4
74
0
42
0.000000001
43
0.0000000001
44
0.0000000001
40
0
40
0
40
0
40
0
40
1
40
1
40
1
40
1
10
94.143090796776718
20
-126.7268038962697
30
0
10
93.977381703936217
20
-126.7268038962697
30
0
10
93.843022980011483
20
-126.86081811064591
30
0
10
93.843022980011483
20
-127.02652720348641
30
0
0
SPLINE
5
334
100
AcDbEntity
8
0
100
AcDbSpline
70
0
71
3
72
8
73
4
74
0
42
0.000000001
43
0.0000000001
44
0.0000000001
40
0
40
0
40
0
40
0
40
1
40
1
40
1
40
1
10
75.143044686075356
20
-126.7268038962697
30
0
10
74.977335593234841
20
-126.7268038962697
30
0
10
74.842976869310093
20
-126.86081811064591
30
0
10
74.842976869310093
20
-127.02652720348641
30
0
0
SPLINE
5
335
100
AcDbEntity
8
0
100
AcDbSpline
70
0
71
3
72
8
73
4
74
0
42
0.000000001
43
0.0000000001
44
0.0000000001
40
0
40
0
40
0
40
0
40
1
40
1
40
1
40
1
10
113.14313690747808
20
-126.7268038962697
30
0
10
112.97742781463759
20
-126.7268038962697
30
0
10
112.84306909071277
20
-126.86081811064591
30
0
10
112.84306909071277
20
-127.02652720348641
30
0
0
SPLINE
5
336
100
AcDbEntity
8
0
100
AcDbSpline
70
0
71
3
72
8
73
4
74
0
42
0.000000001
43
0.0000000001
44
0.0000000001
40
0
40
0
40
0
40
0
40
1
40
1
40
1
40
1
10
93.843022980011483
20
-140.42657060291421
30
0
10
93.843022980011483
20
-140.59227969575471
30
0
10
93.977381703936217
20
-140.72663841967952
30
0
10
94.143090796776718
20
-140.72663841967952
30
0
0
LINE
5
337
100
AcDbEntity
8
0
100
AcDbLine
10
112.84306909071277
20
-127.02652720348641
30
0
11
112.84306909071277
21
-140.42657060291421
31
0
0
SPLINE
5
338
100
AcDbEntity
8
0
100
AcDbSpline
70
0
71
3
72
8
73
4
74
0
42
0.000000001
43
0.0000000001
44
0.0000000001
40
0
40
0
40
0
40
0
40
1
40
1
40
1
40
1
10
126.84307586889689
20
-127.02652720348641
30
0
10
126.84307586889689
20
-126.86081811064591
30
0
10
126.7087171449721
20
-126.7268038962697
30
0
10
126.5430080521316
20
-126.7268038962697
30
0
0
SPLINE
5
339
100
AcDbEntity
8
0
100
AcDbSpline
70
0
71
3
72
8
73
4
74
0
42
0.000000001
43
0.0000000001
44
0.0000000001
40
0
40
0
40
0
40
0
40
1
40
1
40
1
40
1
10
112.84306909071277
20
-140.42657060291421
30
0
10
112.84306909071277
20
-140.59227969575471
30
0
10
112.97742781463759
20
-140.72663841967952
30
0
10
113.14313690747808
20
-140.72663841967952
30
0
0
SPLINE
5
340
100
AcDbEntity
8
0
100
AcDbSpline
70
0
71
3
72
8
73
4
74
0
42
0.000000001
43
0.0000000001
44
0.0000000001
40
0
40
0
40
0
40
0
40
1
40
1
40
1
40
1
10
183.84304194622669
20
-127.02652720348641
30
0
10
183.84304194622669
20
-126.86081811064591
30
0
10
183.70868322230206
20
-126.7268038962697
30
0
10
183.54297412946153
20
-126.7268038962697
30
0
0
LINE
5
341
100
AcDbEntity
8
0
100
AcDbLine
10
183.54297412946153
20
-126.7268038962697
30
0
11
170.1429307300337
21
-126.7268038962697
31
0
0
SPLINE
5
342
100
AcDbEntity
8
0
100
AcDbSpline
70
0
71
3
72
8
73
4
74
0
42
0.000000001
43
0.0000000001
44
0.0000000001
40
0
40
0
40
0
40
0
40
1
40
1
40
1
40
1
10
202.84308805692808
20
-127.02652720348641
30
0
10
202.84308805692808
20
-126.86081811064591
30
0
10
202.70872933300336
20
-126.7268038962697
30
0
10
202.54302024016289
20
-126.7268038962697
30
0
0
SPLINE
5
343
100
AcDbEntity
8
0
100
AcDbSpline
70
0
71
3
72
8
73
4
74
0
42
0.000000001
43
0.0000000001
44
0.0000000001
40
0
40
0
40
0
40
0
40
1
40
1
40
1
40
1
10
202.54302024016289
20
-140.72663841967952
30
0
10
202.70872933300336
20
-140.72663841967952
30
0
10
202.84308805692808
20
-140.59227969575471
30
0
10
202.84308805692808
20
-140.42657060291421
30
0
0
LINE
5
344
100
AcDbEntity
8
0
100
AcDbLine
10
202.54302024016289
20
-126.7268038962697
30
0
11
189.14297684073512
21
-126.7268038962697
31
0
0
LINE
5
345
100
AcDbEntity
8
0
100
AcDbLine
10
188.84290902396981
20
-127.02652720348641
30
0
11
188.84290902396981
21
-140.42657060291421
31
0
0
SPLINE
5
346
100
AcDbEntity
8
0
100
AcDbSpline
70
0
71
3
72
8
73
4
74
0
42
0.000000001
43
0.0000000001
44
0.0000000001
40
0
40
0
40
0
40
0
40
1
40
1
40
1
40
1
10
188.84290902396981
20
-140.42657060291421
30
0
10
188.84290902396981
20
-140.59227969575471
30
0
10
188.97726774789459
20
-140.72663841967952
30
0
10
189.14297684073512
20
-140.72663841967952
30
0
0
LINE
5
347
100
AcDbEntity
8
0
100
AcDbLine
10
126.84307586889689
20
-140.42657060291421
30
0
11
126.84307586889689
21
-127.02652720348641
31
0
0
LINE
5
348
100
AcDbEntity
8
0
100
AcDbLine
10
88.842983647494123
20
-140.42657060291421
30
0
11
88.842983647494123
21
-127.02652720348641
31
0
0
SPLINE
5
349
100
AcDbEntity
8
0
100
AcDbSpline
70
0
71
3
72
8
73
4
74
0
42
0.000000001
43
0.0000000001
44
0.0000000001
40
0
40
0
40
0
40
0
40
1
40
1
40
1
40
1
10
88.543088085503115
20
-140.72663841967952
30
0
10
88.708797178343644
20
-140.72663841967952
30
0
10
88.842983647494123
20
-140.59227969575471
30
0
10
88.842983647494123
20
-140.42657060291421
30
0
0
SPLINE
5
350
100
AcDbEntity
8
0
100
AcDbSpline
70
0
71
3
72
8
73
4
74
0
42
0.000000001
43
0.0000000001
44
0.0000000001
40
0
40
0
40
0
40
0
40
1
40
1
40
1
40
1
10
107.54313419620448
20
-140.72663841967952
30
0
10
107.70867103427081
20
-140.72663841967952
30
0
10
107.8430297581955
20
-140.59227969575471
30
0
10
107.8430297581955
20
-140.42657060291421
30
0
0
LINE
5
351
100
AcDbEntity
8
0
100
AcDbLine
10
93.843022980011483
20
-127.02652720348641
30
0
11
93.843022980011483
21
-140.42657060291421
31
0
0
LINE
5
352
100
AcDbEntity
8
0
100
AcDbLine
10
126.5430080521316
20
-126.7268038962697
30
0
11
113.14313690747808
21
-126.7268038962697
31
0
0
LINE
5
353
100
AcDbEntity
8
0
100
AcDbLine
10
113.14313690747808
20
-140.72663841967952
30
0
11
126.5430080521316
21
-140.72663841967952
31
0
0
SPLINE
5
354
100
AcDbEntity
8
0
100
AcDbSpline
70
0
71
3
72
8
73
4
74
0
42
0.000000001
43
0.0000000001
44
0.0000000001
40
0
40
0
40
0
40
0
40
1
40
1
40
1
40
1
10
183.54297412946153
20
-140.72663841967952
30
0
10
183.70868322230206
20
-140.72663841967952
30
0
10
183.84304194622669
20
-140.59227969575471
30
0
10
183.84304194622669
20
-140.42657060291421
30
0
0
LINE
5
355
100
AcDbEntity
8
0
100
AcDbLine
10
107.54313419620448
20
-126.7268038962697
30
0
11
94.143090796776718
21
-126.7268038962697
31
0
0
LINE
5
356
100
AcDbEntity
8
0
100
AcDbLine
10
169.84320742281699
20
-127.02652720348641
30
0
11
169.84320742281699
21
-140.42657060291421
31
0
0
SPLINE
5
357
100
AcDbEntity
8
0
100
AcDbSpline
70
0
71
3
72
8
73
4
74
0
42
0.000000001
43
0.0000000001
44
0.0000000001
40
0
40
0
40
0
40
0
40
1
40
1
40
1
40
1
10
189.14297684073512
20
-126.7268038962697
30
0
10
188.97726774789459
20
-126.7268038962697
30
0
10
188.84290902396981
20
-126.86081811064591
30
0
10
188.84290902396981
20
-127.02652720348641
30
0
0
SPLINE
5
358
100
AcDbEntity
8
0
100
AcDbSpline
70
0
71
3
72
8
73
4
74
0
42
0.000000001
43
0.0000000001
44
0.0000000001
40
0
40
0
40
0
40
0
40
1
40
1
40
1
40
1
10
221.8431341676295
20
-127.02652720348641
30
0
10
221.8431341676295
20
-126.86081811064591
30
0
10
221.70877544370481
20
-126.7268038962697
30
0
10
221.54306635086431
20
-126.7268038962697
30
0
0
SPLINE
5
359
100
AcDbEntity
8
0
100
AcDbSpline
70
0
71
3
72
8
73
4
74
0
42
0.000000001
43
0.0000000001
44
0.0000000001
40
0
40
0
40
0
40
0
40
1
40
1
40
1
40
1
10
208.14302295143651
20
-126.7268038962697
30
0
10
207.97731385859592
20
-126.7268038962697
30
0
10
207.84295513467117
20
-126.86081811064591
30
0
10
207.84295513467117
20
-127.02652720348641
30
0
0
SPLINE
5
360
100
AcDbEntity
8
0
100
AcDbSpline
70
0
71
3
72
8
73
4
74
0
42
0.000000001
43
0.0000000001
44
0.0000000001
40
0
40
0
40
0
40
0
40
1
40
1
40
1
40
1
10
170.1429307300337
20
-126.7268038962697
30
0
10
169.9772216371932
20
-126.7268038962697
30
0
10
169.84320742281699
20
-126.86081811064591
30
0
10
169.84320742281699
20
-127.02652720348641
30
0
0
LINE
5
361
100
AcDbEntity
8
0
100
AcDbLine
10
189.14297684073512
20
-140.72663841967952
30
0
11
202.54302024016289
21
-140.72663841967952
31
0
0
LINE
5
362
100
AcDbEntity
8
0
100
AcDbLine
10
202.84308805692808
20
-140.42657060291421
30
0
11
202.84308805692808
21
-127.02652720348641
31
0
0
LINE
5
363
100
AcDbEntity
8
0
100
AcDbLine
10
88.842983647494123
20
-121.42652449221281
30
0
11
88.842983647494123
21
-108.02682560233362
31
0
0
SPLINE
5
364
100
AcDbEntity
8
0
100
AcDbSpline
70
0
71
3
72
8
73
4
74
0
42
0.000000001
43
0.0000000001
44
0.0000000001
40
0
40
0
40
0
40
0
40
1
40
1
40
1
40
1
10
75.143044686075356
20
-107.7267577855683
30
0
10
74.977335593234841
20
-107.7267577855683
30
0
10
74.842976869310093
20
-107.86111650949309
30
0
10
74.842976869310093
20
-108.02682560233362
30
0
0
SPLINE
5
365
100
AcDbEntity
8
0
100
AcDbSpline
70
0
71
3
72
8
73
4
74
0
42
0.000000001
43
0.0000000001
44
0.0000000001
40
0
40
0
40
0
40
0
40
1
40
1
40
1
40
1
10
55.843103013382979
20
-121.42652449221281
30
0
10
55.843103013382979
20
-121.59223358505329
30
0
10
55.977289482533472
20
-121.72659230897808
30
0
10
56.142998575373966
20
-121.72659230897808
30
0
0
LINE
5
366
100
AcDbEntity
8
0
100
AcDbLine
10
50.843063680865626
20
-121.42652449221281
30
0
11
50.843063680865626
21
-108.02682560233362
31
0
0
SPLINE
5
367
100
AcDbEntity
8
0
100
AcDbSpline
70
0
71
3
72
8
73
4
74
0
42
0.000000001
43
0.0000000001
44
0.0000000001
40
0
40
0
40
0
40
0
40
1
40
1
40
1
40
1
10
74.842976869310093
20
-121.42652449221281
30
0
10
74.842976869310093
20
-121.59223358505329
30
0
10
74.977335593234841
20
-121.72659230897808
30
0
10
75.143044686075356
20
-121.72659230897808
30
0
0
SPLINE
5
368
100
AcDbEntity
8
0
100
AcDbSpline
70
0
71
3
72
8
73
4
74
0
42
0.000000001
43
0.0000000001
44
0.0000000001
40
0
40
0
40
0
40
0
40
1
40
1
40
1
40
1
10
37.14312471944686
20
-107.7267577855683
30
0
10
36.977415626606344
20
-107.7267577855683
30
0
10
36.843056902681603
20
-107.86111650949309
30
0
10
36.843056902681603
20
-108.02682560233362
30
0
0
LINE
5
369
100
AcDbEntity
8
0
100
AcDbLine
10
37.14312471944686
20
-121.72659230897808
30
0
11
50.542995864100362
21
-121.72659230897808
31
0
0
SPLINE
5
370
100
AcDbEntity
8
0
100
AcDbSpline
70
0
71
3
72
8
73
4
74
0
42
0.000000001
43
0.0000000001
44
0.0000000001
40
0
40
0
40
0
40
0
40
1
40
1
40
1
40
1
10
50.542995864100362
20
-121.72659230897808
30
0
10
50.708704956940878
20
-121.72659230897808
30
0
10
50.843063680865626
20
-121.59223358505329
30
0
10
50.843063680865626
20
-121.42652449221281
30
0
0
LINE
5
371
100
AcDbEntity
8
0
100
AcDbLine
10
207.84295513467117
20
-127.02652720348641
30
0
11
207.84295513467117
21
-140.42657060291421
31
0
0
SPLINE
5
372
100
AcDbEntity
8
0
100
AcDbSpline
70
0
71
3
72
8
73
4
74
0
42
0.000000001
43
0.0000000001
44
0.0000000001
40
0
40
0
40
0
40
0
40
1
40
1
40
1
40
1
10
69.843109791567002
20
-108.02682560233362
30
0
10
69.843109791567002
20
-107.86111650949309
30
0
10
69.708751067642254
20
-107.7267577855683
30
0
10
69.543041974801739
20
-107.7267577855683
30
0
0
SPLINE
5
373
100
AcDbEntity
8
0
100
AcDbSpline
70
0
71
3
72
8
73
4
74
0
42
0.000000001
43
0.0000000001
44
0.0000000001
40
0
40
0
40
0
40
0
40
1
40
1
40
1
40
1
10
36.843056902681603
20
-121.42652449221281
30
0
10
36.843056902681603
20
-121.59223358505329
30
0
10
36.977415626606344
20
-121.72659230897808
30
0
10
37.14312471944686
20
-121.72659230897808
30
0
0
LINE
5
374
100
AcDbEntity
8
0
100
AcDbLine
10
55.843103013382979
20
-108.02682560233362
30
0
11
55.843103013382979
21
-121.42652449221281
31
0
0
LINE
5
375
100
AcDbEntity
8
0
100
AcDbLine
10
221.8431341676295
20
-140.42657060291421
30
0
11
221.8431341676295
21
-127.02652720348641
31
0
0
SPLINE
5
376
100
AcDbEntity
8
0
100
AcDbSpline
70
0
71
3
72
8
73
4
74
0
42
0.000000001
43
0.0000000001
44
0.0000000001
40
0
40
0
40
0
40
0
40
1
40
1
40
1
40
1
10
207.84295513467117
20
-140.42657060291421
30
0
10
207.84295513467117
20
-140.59227969575471
30
0
10
207.97731385859592
20
-140.72663841967952
30
0
10
208.14302295143651
20
-140.72663841967952
30
0
0
LINE
5
377
100
AcDbEntity
8
0
100
AcDbLine
10
208.14302295143651
20
-140.72663841967952
30
0
11
221.54306635086431
21
-140.72663841967952
31
0
0
LINE
5
378
100
AcDbEntity
8
0
100
AcDbLine
10
50.542995864100362
20
-107.7267577855683
30
0
11
37.14312471944686
21
-107.7267577855683
31
0
0
LINE
5
379
100
AcDbEntity
8
0
100
AcDbLine
10
69.543041974801739
20
-107.7267577855683
30
0
11
56.142998575373966
21
-107.7267577855683
31
0
0
LINE
5
380
100
AcDbEntity
8
0
100
AcDbLine
10
221.54306635086431
20
-126.7268038962697
30
0
11
208.14302295143651
21
-126.7268038962697
31
0
0
SPLINE
5
381
100
AcDbEntity
8
0
100
AcDbSpline
70
0
71
3
72
8
73
4
74
0
42
0.000000001
43
0.0000000001
44
0.0000000001
40
0
40
0
40
0
40
0
40
1
40
1
40
1
40
1
10
50.843063680865626
20
-108.02682560233362
30
0
10
50.843063680865626
20
-107.86111650949309
30
0
10
50.708704956940878
20
-107.7267577855683
30
0
10
50.542995864100362
20
-107.7267577855683
30
0
0
LINE
5
382
100
AcDbEntity
8
0
100
AcDbLine
10
69.843109791567002
20
-121.42652449221281
30
0
11
69.843109791567002
21
-108.02682560233362
31
0
0
SPLINE
5
383
100
AcDbEntity
8
0
100
AcDbSpline
70
0
71
3
72
8
73
4
74
0
42
0.000000001
43
0.0000000001
44
0.0000000001
40
0
40
0
40
0
40
0
40
1
40
1
40
1
40
1
10
69.543041974801739
20
-121.72659230897808
30
0
10
69.708751067642254
20
-121.72659230897808
30
0
10
69.843109791567002
20
-121.59223358505329
30
0
10
69.843109791567002
20
-121.42652449221281
30
0
0
SPLINE
5
384
100
AcDbEntity
8
0
100
AcDbSpline
70
0
71
3
72
8
73
4
74
0
42
0.000000001
43
0.0000000001
44
0.0000000001
40
0
40
0
40
0
40
0
40
1
40
1
40
1
40
1
10
221.54306635086431
20
-140.72663841967952
30
0
10
221.70877544370481
20
-140.72663841967952
30
0
10
221.8431341676295
20
-140.59227969575471
30
0
10
221.8431341676295
20
-140.42657060291421
30
0
0
LINE
5
385
100
AcDbEntity
8
0
100
AcDbLine
10
56.142998575373966
20
-121.72659230897808
30
0
11
69.543041974801739
21
-121.72659230897808
31
0
0
SPLINE
5
386
100
AcDbEntity
8
0
100
AcDbSpline
70
0
71
3
72
8
73
4
74
0
42
0.000000001
43
0.0000000001
44
0.0000000001
40
0
40
0
40
0
40
0
40
1
40
1
40
1
40
1
10
88.842983647494123
20
-108.02682560233362
30
0
10
88.842983647494123
20
-107.86111650949309
30
0
10
88.708797178343644
20
-107.7267577855683
30
0
10
88.543088085503115
20
-107.7267577855683
30
0
0
SPLINE
5
387
100
AcDbEntity
8
0
100
AcDbSpline
70
0
71
3
72
8
73
4
74
0
42
0.000000001
43
0.0000000001
44
0.0000000001
40
0
40
0
40
0
40
0
40
1
40
1
40
1
40
1
10
94.143090796776718
20
-107.7267577855683
30
0
10
93.977381703936217
20
-107.7267577855683
30
0
10
93.843022980011483
20
-107.86111650949309
30
0
10
93.843022980011483
20
-108.02682560233362
30
0
0
LINE
5
388
100
AcDbEntity
8
0
100
AcDbLine
10
74.842976869310093
20
-108.02682560233362
30
0
11
74.842976869310093
21
-121.42652449221281
31
0
0
SPLINE
5
389
100
AcDbEntity
8
0
100
AcDbSpline
70
0
71
3
72
8
73
4
74
0
42
0.000000001
43
0.0000000001
44
0.0000000001
40
0
40
0
40
0
40
0
40
1
40
1
40
1
40
1
10
88.543088085503115
20
-121.72659230897808
30
0
10
88.708797178343644
20
-121.72659230897808
30
0
10
88.842983647494123
20
-121.59223358505329
30
0
10
88.842983647494123
20
-121.42652449221281
30
0
0
LINE
5
390
100
AcDbEntity
8
0
100
AcDbLine
10
36.843056902681603
20
-108.02682560233362
30
0
11
36.843056902681603
21
-121.42652449221281
31
0
0
LINE
5
391
100
AcDbEntity
8
0
100
AcDbLine
10
75.143044686075356
20
-121.72659230897808
30
0
11
88.543088085503115
21
-121.72659230897808
31
0
0
SPLINE
5
392
100
AcDbEntity
8
0
100
AcDbSpline
70
0
71
3
72
8
73
4
74
0
42
0.000000001
43
0.0000000001
44
0.0000000001
40
0
40
0
40
0
40
0
40
1
40
1
40
1
40
1
10
107.8430297581955
20
-108.02682560233362
30
0
10
107.8430297581955
20
-107.86111650949309
30
0
10
107.70867103427081
20
-107.7267577855683
30
0
10
107.54313419620448
20
-107.7267577855683
30
0
0
SPLINE
5
393
100
AcDbEntity
8
0
100
AcDbSpline
70
0
71
3
72
8
73
4
74
0
42
0.000000001
43
0.0000000001
44
0.0000000001
40
0
40
0
40
0
40
0
40
1
40
1
40
1
40
1
10
56.142998575373966
20
-107.7267577855683
30
0
10
55.977289482533472
20
-107.7267577855683
30
0
10
55.843103013382979
20
-107.86111650949309
30
0
10
55.843103013382979
20
-108.02682560233362
30
0
0
LINE
5
394
100
AcDbEntity
8
0
100
AcDbLine
10
88.543088085503115
20
-107.7267577855683
30
0
11
75.143044686075356
21
-107.7267577855683
31
0
0
SPLINE
5
395
100
AcDbEntity
8
0
100
AcDbSpline
70
0
71
3
72
8
73
4
74
0
42
0.000000001
43
0.0000000001
44
0.0000000001
40
0
40
0
40
0
40
0
40
1
40
1
40
1
40
1
10
107.54313419620448
20
-121.72659230897808
30
0
10
107.70867103427081
20
-121.72659230897808
30
0
10
107.8430297581955
20
-121.59223358505329
30
0
10
107.8430297581955
20
-121.42652449221281
30
0
0
SPLINE
5
396
100
AcDbEntity
8
0
100
AcDbSpline
70
0
71
3
72
20
73
16
74
0
42
0.000000001
43
0.0000000001
44
0.0000000001
40
0
40
0
40
0
40
0
40
1
40
1
40
1
40
2
40
2
40
2
40
2.9499107627482313
40
2.9499107627482313
40
2.9499107627482313
40
3
40
3
40
3
40
4
40
4
40
4
40
4
10
92.593139625101713
20
-86.226605881221133
30
0
10
92.593139625101713
20
-85.527519996660018
30
0
10
92.042253304490799
20
-84.976727952033585
30
0
10
91.343089441139938
20
-84.976727952033585
30
0
10
90.643690118001658
20
-84.976727952033585
30
0
10
90.093039257178106
20
-85.527442017870271
30
0
10
90.093039257178106
20
-86.226605881221133
30
0
10
90.093039257178106
20
-86.890972825729008
30
0
10
90.594601804541213
20
-87.420030007058926
30
0
10
91.239536983142372
20
-87.472469988221903
30
0
10
91.273544715699799
20
-87.475235172869716
30
0
10
91.308057062509533
20
-87.476656065182908
30
0
10
91.343089441139938
20
-87.476656065182908
30
0
10
92.042253304490828
20
-87.476656065182908
30
0
10
92.593139625101713
20
-86.925927237729127
30
0
10
92.593139625101713
20
-86.226605881221133
30
0
0
SPLINE
5
397
100
AcDbEntity
8
0
100
AcDbSpline
70
0
71
3
72
17
73
13
74
0
42
0.000000001
43
0.0000000001
44
0.0000000001
40
0
40
0
40
0
40
0
40
1
40
1
40
1
40
2
40
2
40
2
40
3
40
3
40
3
40
4
40
4
40
4
40
4
10
54.593047403698961
20
-105.22665199192249
30
0
10
54.593047403698961
20
-104.5274881285716
30
0
10
54.042318576245172
20
-103.97660180796069
30
0
10
53.342997219737171
20
-103.97660180796069
30
0
10
52.643911335176057
20
-103.97660180796069
30
0
10
52.093119290549637
20
-104.5274881285716
30
0
10
52.093119290549637
20
-105.22665199192249
30
0
10
52.093119290549637
20
-105.9258158552734
30
0
10
52.643833356386267
20
-106.47652992111
30
0
10
53.342997219737171
20
-106.47652992111
30
0
10
54.042396542875473
20
-106.47652992111
30
0
10
54.593047403698961
20
-105.9258158552734
30
0
10
54.593047403698961
20
-105.22665199192249
30
0
0
SPLINE
5
398
100
AcDbEntity
8
0
100
AcDbSpline
70
0
71
3
72
17
73
13
74
0
42
0.000000001
43
0.0000000001
44
0.0000000001
40
0
40
0
40
0
40
0
40
1
40
1
40
1
40
2
40
2
40
2
40
3
40
3
40
3
40
4
40
4
40
4
40
4
10
92.593139625101713
20
-124.2266981026239
30
0
10
92.593139625101713
20
-123.52761221806277
30
0
10
92.042253304490842
20
-122.97682017343639
30
0
10
91.343089441139938
20
-122.97682017343639
30
0
10
90.643690118001643
20
-122.97682017343639
30
0
10
90.093039257178106
20
-123.527534239273
30
0
10
90.093039257178106
20
-124.22669810262391
30
0
10
90.093039257178106
20
-124.92586196597479
30
0
10
90.643690118001615
20
-125.47657603181139
30
0
10
91.343089441139938
20
-125.47657603181139
30
0
10
92.042253304490842
20
-125.47657603181139
30
0
10
92.593139625101713
20
-124.92578398718504
30
0
10
92.593139625101713
20
-124.2266981026239
30
0
0
SPLINE
5
399
100
AcDbEntity
8
0
100
AcDbSpline
70
0
71
3
72
23
73
19
74
0
42
0.000000001
43
0.0000000001
44
0.0000000001
40
0
40
0
40
0
40
0
40
1
40
1
40
1
40
1.9499106705362155
40
1.9499106705362155
40
1.9499106705362155
40
2
40
2
40
2
40
2.9496248189006828
40
2.9496248189006828
40
2.9496248189006828
40
3
40
3
40
3
40
4
40
4
40
4
40
4
10
206.59307177976149
20
-86.226605881221133
30
0
10
206.59307177976149
20
-85.5274420178703
30
0
10
206.04235771392473
20
-84.976727952033585
30
0
10
205.34319385057393
20
-84.976727952033585
30
0
10
204.6786033235158
20
-84.976727952033585
30
0
10
204.14958833045418
20
-85.478352512321365
30
0
10
204.0971567961318
20
-86.123086817060795
30
0
10
204.09439205153166
20
-86.157084023333326
30
0
10
204.09297141183788
20
-86.191585232120573
30
0
10
204.09297141183788
20
-86.226605881221133
30
0
10
204.09297141183788
20
-86.890772836795591
30
0
10
204.59419713438496
20
-87.419697838327451
30
0
10
205.23902556304193
20
-87.472421787106811
30
0
10
205.27323207094383
20
-87.475218658476606
30
0
10
205.3079496226735
20
-87.476656065182908
30
0
10
205.34319385057393
20
-87.476656065182908
30
0
10
206.04235771392473
20
-87.476656065182908
30
0
10
206.59307177976149
20
-86.926005204359384
30
0
10
206.59307177976149
20
-86.226605881221133
30
0
0
SPLINE
5
400
100
AcDbEntity
8
0
100
AcDbSpline
70
0
71
3
72
23
73
19
74
0
42
0.000000001
43
0.0000000001
44
0.0000000001
40
0
40
0
40
0
40
0
40
1
40
1
40
1
40
1.9499106705360498
40
1.9499106705360498
40
1.9499106705360498
40
2
40
2
40
2
40
2.9499106705360369
40
2.9499106705360369
40
2.9499106705360369
40
3
40
3
40
3
40
4
40
4
40
4
40
4
10
206.59307177976149
20
-124.2266981026239
30
0
10
206.59307177976149
20
-123.52753423927304
30
0
10
206.04235771392479
20
-122.97682017343639
30
0
10
205.34319385057393
20
-122.97682017343639
30
0
10
204.67860332351589
20
-122.97682017343639
30
0
10
204.14958833045443
20
-123.47844473372393
30
0
10
204.09715679613186
20
-124.12317903846322
30
0
10
204.09439205153171
20
-124.15717624473587
30
0
10
204.09297141183788
20
-124.19167745352324
30
0
10
204.09297141183788
20
-124.22669810262391
30
0
10
204.09297141183788
20
-124.89084131687413
30
0
10
204.59447178242175
20
-125.41994062991988
30
0
10
205.23960762564974
20
-125.47238923195557
30
0
10
205.2736260052751
20
-125.47515487654593
30
0
10
205.30814961441473
20
-125.47657603181139
30
0
10
205.34319385057393
20
-125.47657603181139
30
0
10
206.04235771392479
20
-125.47657603181139
30
0
10
206.59307177976149
20
-124.92586196597478
30
0
10
206.59307177976149
20
-124.2266981026239
30
0
0
SPLINE
5
401
100
AcDbEntity
8
0
100
AcDbSpline
70
0
71
3
72
20
73
16
74
0
42
0.000000001
43
0.0000000001
44
0.0000000001
40
0
40
0
40
0
40
0
40
1
40
1
40
1
40
2
40
2
40
2
40
3
40
3
40
3
40
3.9499106705361946
40
3.9499106705361946
40
3.9499106705361946
40
4
40
4
40
4
40
4
10
244.59316400116418
20
-105.22665199192249
30
0
10
244.59316400116418
20
-104.52748812857159
30
0
10
244.04249837117078
20
-103.97660180796069
30
0
10
243.34294156242819
20
-103.97660180796069
30
0
10
242.64385567786712
20
-103.97660180796069
30
0
10
242.09306363324058
20
-104.52748812857166
30
0
10
242.09306363324058
20
-105.22665199192249
30
0
10
242.09306363324058
20
-105.92581585527334
30
0
10
242.6437776990773
20
-106.47652992111
30
0
10
243.34294156242819
20
-106.47652992111
30
0
10
244.00753208948626
20
-106.47652992111
30
0
10
244.53654708254786
20
-105.97490536082232
30
0
10
244.58897861687024
20
-105.33017105608292
30
0
10
244.59174336147038
20
-105.29617384981037
30
0
10
244.59316400116418
20
-105.26167264102307
30
0
10
244.59316400116418
20
-105.22665199192249
30
0
0
ENDSEC
0
SECTION
2
OBJECTS
0
DICTIONARY
5
C
100
AcDbDictionary
3
ACAD_GROUP
350
D
3
ACAD_MLINESTYLE
350
17
0
DICTIONARY
5
D
100
AcDbDictionary
0
DICTIONARY
5
1A
330
C
100
AcDbDictionary
0
DICTIONARY
5
17
100
AcDbDictionary
0
ENDSEC
0
EOF
